<?xml version="1.0" standalone="no" ?>
<!DOCTYPE svg PUBLIC "-//W3C//DTD SVG 1.1//EN" "http://www.w3.org/Graphics/SVG/1.1/DTD/svg11.dtd">
<svg width="259px" height="198px" viewBox="0 0 259 198" style="background-color: #ffffff00" xmlns="http://www.w3.org/2000/svg" xmlns:xlink="http://www.w3.org/1999/xlink" version="1.1" >
<text x="0" y="0" stroke="none" fill="#000000" transform="matrix(0.0666667 0 0 0.0666667 123.021 36)" font-style="normal" font-weight="normal" font-size="240px" font-family="Arial" >
K</text>
<text x="0" y="0" stroke="none" fill="#000000" transform="matrix(0.0666667 0 0 0.0666667 133.693 39.4667)" font-style="normal" font-weight="normal" font-size="180px" font-family="Arial" >
d</text>
<text x="0" y="0" stroke="none" fill="#000000" transform="matrix(0.0666667 0 0 0.0666667 140.367 29.7333)" font-style="normal" font-weight="normal" font-size="180px" font-family="Arial" >
*</text>
<text x="0" y="0" stroke="none" fill="#000000" transform="matrix(0.0666667 0 0 0.0666667 19.0213 55)" font-style="normal" font-weight="normal" font-size="240px" font-family="Arial" >
R </text>
<text x="0" y="0" stroke="none" fill="#000000" transform="matrix(0.0666667 0 0 0.0666667 35.0213 55)" font-style="normal" font-weight="normal" font-size="240px" font-family="Arial" >
+ </text>
<text x="0" y="0" stroke="none" fill="#000000" transform="matrix(0.0666667 0 0 0.0666667 48.8104 55)" font-style="normal" font-weight="normal" font-size="240px" font-family="Arial" >
L</text>
<text x="0" y="0" stroke="none" fill="#000000" transform="matrix(0.0666667 0 0 0.0666667 57.7088 48.7333)" font-style="normal" font-weight="normal" font-size="180px" font-family="Arial" >
*</text>
<text x="0" y="0" stroke="none" fill="#000000" transform="matrix(0.0666667 0 0 0.0666667 62.3787 55)" font-style="normal" font-weight="normal" font-size="240px" font-family="Arial" >
 </text>
<text x="0" y="0" stroke="none" fill="#000000" transform="matrix(0.0666667 0 0 0.0666667 66.8241 55)" font-style="normal" font-weight="normal" font-size="240px" font-family="Arial" >
+ </text>
<text x="0" y="0" stroke="none" fill="#000000" transform="matrix(0.0666667 0 0 0.0666667 80.6131 55)" font-style="normal" font-weight="normal" font-size="240px" font-family="Arial" >
L</text>
<path stroke="none" fill="#000000" transform="matrix(0.0666667 0 0 0.0666667 -192.859 -249)" d="M 5112.25,4447.99 L 4505.91,4447.99 L 4505.91,4436.99 L 5112.25,4436.99 Z " />
<path stroke="none" fill="#000000" transform="matrix(0.0666667 0 0 0.0666667 -192.859 -249)" d="M 5210.46,4442.49 C 5210.46,4442.49 5097.08,4471.84 5097.08,4471.84 C 5097.08,4471.84 5111.25,4455.33 5111.25,4442.49 C 5111.25,4429.22 5097.08,4412.15 5097.08,4412.15 C 5097.08,4412.15 5210.46,4442.49 5210.46,4442.49 C 5210.46,4442.49 5210.46,4442.49 5210.46,4442.49 " />
<path stroke="#000000" stroke-width="1" fill="none" transform="matrix(0.0666667 0 0 0.0666667 -192.859 -249)" d="M 5210.46,4442.49 C 5210.46,4442.49 5097.08,4471.84 5097.08,4471.84 C 5097.08,4471.84 5111.25,4455.33 5111.25,4442.49 C 5111.25,4429.22 5097.08,4412.15 5097.08,4412.15 C 5097.08,4412.15 5210.46,4442.49 5210.46,4442.49 C 5210.46,4442.49 5210.46,4442.49 5210.46,4442.49 " />
<path stroke="none" fill="#000000" transform="matrix(0.0666667 0 0 0.0666667 -192.859 -249)" d="M 4604.12,4499.47 L 5210.46,4499.47 L 5210.46,4510.47 L 4604.12,4510.47 Z " />
<path stroke="none" fill="#000000" transform="matrix(0.0666667 0 0 0.0666667 -192.859 -249)" d="M 4505.91,4504.97 C 4505.91,4504.97 4619.29,4474.63 4619.29,4474.63 C 4619.29,4474.63 4605.12,4491.7 4605.12,4504.97 C 4605.12,4517.81 4619.29,4534.32 4619.29,4534.32 C 4619.29,4534.32 4505.91,4504.97 4505.91,4504.97 C 4505.91,4504.97 4505.91,4504.97 4505.91,4504.97 " />
<path stroke="#000000" stroke-width="1" fill="none" transform="matrix(0.0666667 0 0 0.0666667 -192.859 -249)" d="M 4505.91,4504.97 C 4505.91,4504.97 4619.29,4474.63 4619.29,4474.63 C 4619.29,4474.63 4605.12,4491.7 4605.12,4504.97 C 4605.12,4517.81 4619.29,4534.32 4619.29,4534.32 C 4619.29,4534.32 4505.91,4504.97 4505.91,4504.97 C 4505.91,4504.97 4505.91,4504.97 4505.91,4504.97 " />
<text x="0" y="0" stroke="none" fill="#000000" transform="matrix(0.0666667 0 0 0.0666667 173.855 55)" font-style="normal" font-weight="normal" font-size="240px" font-family="Arial" >
RL</text>
<text x="0" y="0" stroke="none" fill="#000000" transform="matrix(0.0666667 0 0 0.0666667 194.308 48.7333)" font-style="normal" font-weight="normal" font-size="180px" font-family="Arial" >
*</text>
<text x="0" y="0" stroke="none" fill="#000000" transform="matrix(0.0666667 0 0 0.0666667 198.978 55)" font-style="normal" font-weight="normal" font-size="240px" font-family="Arial" >
 </text>
<text x="0" y="0" stroke="none" fill="#000000" transform="matrix(0.0666667 0 0 0.0666667 203.423 55)" font-style="normal" font-weight="normal" font-size="240px" font-family="Arial" >
+ </text>
<text x="0" y="0" stroke="none" fill="#000000" transform="matrix(0.0666667 0 0 0.0666667 217.212 55)" font-style="normal" font-weight="normal" font-size="240px" font-family="Arial" >
L</text>
<path stroke="none" fill="#000000" transform="matrix(0.0666667 0 0 0.0666667 -192.859 -249)" d="M 3749.7,5425.91 L 3749.34,4819.56 L 3760.34,4819.56 L 3760.7,5425.91 Z " />
<path stroke="none" fill="#000000" transform="matrix(0.0666667 0 0 0.0666667 -192.859 -249)" d="M 3755.26,5524.12 C 3755.26,5524.12 3725.85,5411.75 3725.85,5411.75 C 3725.85,5411.75 3742.36,5425.35 3755.2,5424.91 C 3768.04,5424.46 3784.54,5409.72 3784.54,5409.72 C 3784.54,5409.72 3755.26,5524.12 3755.26,5524.12 C 3755.26,5524.12 3755.26,5524.12 3755.26,5524.12 " />
<path stroke="#000000" stroke-width="1" fill="none" transform="matrix(0.0666667 0 0 0.0666667 -192.859 -249)" d="M 3755.26,5524.12 C 3755.26,5524.12 3725.85,5411.75 3725.85,5411.75 C 3725.85,5411.75 3742.36,5425.35 3755.2,5424.91 C 3768.04,5424.46 3784.54,5409.72 3784.54,5409.72 C 3784.54,5409.72 3755.26,5524.12 3755.26,5524.12 C 3755.26,5524.12 3755.26,5524.12 3755.26,5524.12 " />
<path stroke="none" fill="#000000" transform="matrix(0.0666667 0 0 0.0666667 -192.859 -249)" d="M 3697.92,4917.81 L 3698.28,5524.16 L 3687.28,5524.16 L 3686.92,4917.81 Z " />
<path stroke="none" fill="#000000" transform="matrix(0.0666667 0 0 0.0666667 -192.859 -249)" d="M 3692.36,4819.6 C 3692.36,4819.6 3721.77,4931.97 3721.77,4931.97 C 3721.77,4931.97 3705.26,4918.37 3692.42,4918.81 C 3679.58,4919.26 3663.08,4934 3663.08,4934 C 3663.08,4934 3692.36,4819.6 3692.36,4819.6 C 3692.36,4819.6 3692.36,4819.6 3692.36,4819.6 " />
<path stroke="#000000" stroke-width="1" fill="none" transform="matrix(0.0666667 0 0 0.0666667 -192.859 -249)" d="M 3692.36,4819.6 C 3692.36,4819.6 3721.77,4931.97 3721.77,4931.97 C 3721.77,4931.97 3705.26,4918.37 3692.42,4918.81 C 3679.58,4919.26 3663.08,4934 3663.08,4934 C 3663.08,4934 3692.36,4819.6 3692.36,4819.6 C 3692.36,4819.6 3692.36,4819.6 3692.36,4819.6 " />
<text x="0" y="0" stroke="none" fill="#000000" transform="matrix(0.0666667 0 0 0.0666667 27.0213 101)" font-style="normal" font-weight="normal" font-size="240px" font-family="Arial" >
K</text>
<text x="0" y="0" stroke="none" fill="#000000" transform="matrix(0.0666667 0 0 0.0666667 37.6932 104.467)" font-style="normal" font-weight="normal" font-size="180px" font-family="Arial" >
d</text>
<text x="0" y="0" stroke="none" fill="#000000" transform="matrix(0.0666667 0 0 0.0666667 30.3547 149.5)" font-style="normal" font-weight="normal" font-size="240px" font-family="Arial" >
RL </text>
<text x="0" y="0" stroke="none" fill="#000000" transform="matrix(0.0666667 0 0 0.0666667 55.2531 149.5)" font-style="normal" font-weight="normal" font-size="240px" font-family="Arial" >
+ </text>
<text x="0" y="0" stroke="none" fill="#000000" transform="matrix(0.0666667 0 0 0.0666667 69.0422 149.5)" font-style="normal" font-weight="normal" font-size="240px" font-family="Arial" >
L</text>
<text x="0" y="0" stroke="none" fill="#000000" transform="matrix(0.0666667 0 0 0.0666667 77.9406 143.233)" font-style="normal" font-weight="normal" font-size="180px" font-family="Arial" >
*</text>
<path stroke="none" fill="#000000" transform="matrix(0.0666667 0 0 0.0666667 -192.859 -249)" d="M 5924.7,5425.91 L 5924.34,4819.56 L 5935.34,4819.56 L 5935.7,5425.91 Z " />
<path stroke="none" fill="#000000" transform="matrix(0.0666667 0 0 0.0666667 -192.859 -249)" d="M 5930.26,5524.12 C 5930.26,5524.12 5900.85,5411.75 5900.85,5411.75 C 5900.85,5411.75 5917.36,5425.35 5930.2,5424.91 C 5943.04,5424.46 5959.54,5409.72 5959.54,5409.72 C 5959.54,5409.72 5930.26,5524.12 5930.26,5524.12 C 5930.26,5524.12 5930.26,5524.12 5930.26,5524.12 " />
<path stroke="#000000" stroke-width="1" fill="none" transform="matrix(0.0666667 0 0 0.0666667 -192.859 -249)" d="M 5930.26,5524.12 C 5930.26,5524.12 5900.85,5411.75 5900.85,5411.75 C 5900.85,5411.75 5917.36,5425.35 5930.2,5424.91 C 5943.04,5424.46 5959.54,5409.72 5959.54,5409.72 C 5959.54,5409.72 5930.26,5524.12 5930.26,5524.12 C 5930.26,5524.12 5930.26,5524.12 5930.26,5524.12 " />
<path stroke="none" fill="#000000" transform="matrix(0.0666667 0 0 0.0666667 -192.859 -249)" d="M 5872.92,4917.81 L 5873.28,5524.16 L 5862.28,5524.16 L 5861.92,4917.81 Z " />
<path stroke="none" fill="#000000" transform="matrix(0.0666667 0 0 0.0666667 -192.859 -249)" d="M 5867.36,4819.6 C 5867.36,4819.6 5896.77,4931.97 5896.77,4931.97 C 5896.77,4931.97 5880.26,4918.37 5867.42,4918.81 C 5854.58,4919.26 5838.08,4934 5838.08,4934 C 5838.08,4934 5867.36,4819.6 5867.36,4819.6 C 5867.36,4819.6 5867.36,4819.6 5867.36,4819.6 " />
<path stroke="#000000" stroke-width="1" fill="none" transform="matrix(0.0666667 0 0 0.0666667 -192.859 -249)" d="M 5867.36,4819.6 C 5867.36,4819.6 5896.77,4931.97 5896.77,4931.97 C 5896.77,4931.97 5880.26,4918.37 5867.42,4918.81 C 5854.58,4919.26 5838.08,4934 5838.08,4934 C 5838.08,4934 5867.36,4819.6 5867.36,4819.6 C 5867.36,4819.6 5867.36,4819.6 5867.36,4819.6 " />
<path stroke="none" fill="#000000" transform="matrix(0.0666667 0 0 0.0666667 -192.859 -249)" d="M 5112.25,5850.49 L 4505.91,5850.49 L 4505.91,5839.49 L 5112.25,5839.49 Z " />
<path stroke="none" fill="#000000" transform="matrix(0.0666667 0 0 0.0666667 -192.859 -249)" d="M 5210.46,5844.99 C 5210.46,5844.99 5097.08,5874.34 5097.08,5874.34 C 5097.08,5874.34 5111.25,5857.83 5111.25,5844.99 C 5111.25,5831.72 5097.08,5814.65 5097.08,5814.65 C 5097.08,5814.65 5210.46,5844.99 5210.46,5844.99 C 5210.46,5844.99 5210.46,5844.99 5210.46,5844.99 " />
<path stroke="#000000" stroke-width="1" fill="none" transform="matrix(0.0666667 0 0 0.0666667 -192.859 -249)" d="M 5210.46,5844.99 C 5210.46,5844.99 5097.08,5874.34 5097.08,5874.34 C 5097.08,5874.34 5111.25,5857.83 5111.25,5844.99 C 5111.25,5831.72 5097.08,5814.65 5097.08,5814.65 C 5097.08,5814.65 5210.46,5844.99 5210.46,5844.99 C 5210.46,5844.99 5210.46,5844.99 5210.46,5844.99 " />
<path stroke="none" fill="#000000" transform="matrix(0.0666667 0 0 0.0666667 -192.859 -249)" d="M 4604.12,5901.97 L 5210.46,5901.97 L 5210.46,5912.97 L 4604.12,5912.97 Z " />
<path stroke="none" fill="#000000" transform="matrix(0.0666667 0 0 0.0666667 -192.859 -249)" d="M 4505.91,5907.47 C 4505.91,5907.47 4619.29,5877.13 4619.29,5877.13 C 4619.29,5877.13 4605.12,5894.2 4605.12,5907.47 C 4605.12,5920.31 4619.29,5936.82 4619.29,5936.82 C 4619.29,5936.82 4505.91,5907.47 4505.91,5907.47 C 4505.91,5907.47 4505.91,5907.47 4505.91,5907.47 " />
<path stroke="#000000" stroke-width="1" fill="none" transform="matrix(0.0666667 0 0 0.0666667 -192.859 -249)" d="M 4505.91,5907.47 C 4505.91,5907.47 4619.29,5877.13 4619.29,5877.13 C 4619.29,5877.13 4605.12,5894.2 4605.12,5907.47 C 4605.12,5920.31 4619.29,5936.82 4619.29,5936.82 C 4619.29,5936.82 4505.91,5907.47 4505.91,5907.47 C 4505.91,5907.47 4505.91,5907.47 4505.91,5907.47 " />
<text x="0" y="0" stroke="none" fill="#000000" transform="matrix(0.0666667 0 0 0.0666667 183.355 149.5)" font-style="normal" font-weight="normal" font-size="240px" font-family="Arial" >
RLL</text>
<text x="0" y="0" stroke="none" fill="#000000" transform="matrix(0.0666667 0 0 0.0666667 212.706 143.233)" font-style="normal" font-weight="normal" font-size="180px" font-family="Arial" >
*</text>
<text x="0" y="0" stroke="none" fill="#000000" transform="matrix(0.0666667 0 0 0.0666667 209.021 101)" font-style="normal" font-weight="normal" font-size="240px" font-family="Arial" >
K</text>
<text x="0" y="0" stroke="none" fill="#000000" transform="matrix(0.0666667 0 0 0.0666667 219.693 104.467)" font-style="normal" font-weight="normal" font-size="180px" font-family="Arial" >
d4</text>
<text x="0" y="0" stroke="none" fill="#000000" transform="matrix(0.0666667 0 0 0.0666667 123.021 168.5)" font-style="normal" font-weight="normal" font-size="240px" font-family="Arial" >
K</text>
<text x="0" y="0" stroke="none" fill="#000000" transform="matrix(0.0666667 0 0 0.0666667 133.693 171.967)" font-style="normal" font-weight="normal" font-size="180px" font-family="Arial" >
d3</text>
<clipPath id="1" >
<path clip-rule="evenodd" d="M -2.712,-3.06669 L 262.021,-3.06669 L 262.021,201 L -2.712,201 L -2.712,-3.06669 M 3.95467,181 C 3.95467,181 3.95467,11.6 3.95467,11.6 C 3.95467,7.18422 7.53891,3.59998 11.9547,3.59998 C 11.9547,3.59998 242.021,3.59998 242.021,3.59998 C 246.437,3.59998 250.021,7.18422 250.021,11.6 C 250.021,11.6 250.021,181 250.021,181 C 250.021,185.416 246.437,189 242.021,189 C 242.021,189 11.9547,189 11.9547,189 C 7.53891,189 3.95467,185.416 3.95467,181 " />
</clipPath>
<g clip-path="url(#1)" >
<path stroke="none" fill="#000000" transform="matrix(0.0666667 0 0 0.0666667 -223 -249)" fill-opacity="0.247059" d="M 3484.32,6530 C 3484.32,6530 3484.32,3989 3484.32,3989 C 3484.32,3922.76 3538.08,3869 3604.32,3869 C 3604.32,3869 7055.32,3869 7055.32,3869 C 7121.56,3869 7175.32,3922.76 7175.32,3989 C 7175.32,3989 7175.32,6530 7175.32,6530 C 7175.32,6596.24 7121.56,6650 7055.32,6650 C 7055.32,6650 3604.32,6650 3604.32,6650 C 3538.08,6650 3484.32,6596.24 3484.32,6530 " />
</g>
<path stroke="#000000" stroke-width="20" fill="none" transform="matrix(0.0666667 0 0 0.0666667 -192.859 -249)" d="M 2952.2,6450 C 2952.2,6450 2952.2,3909 2952.2,3909 C 2952.2,3842.76 3005.96,3789 3072.2,3789 C 3072.2,3789 6523.2,3789 6523.2,3789 C 6589.44,3789 6643.2,3842.76 6643.2,3909 C 6643.2,3909 6643.2,6450 6643.2,6450 C 6643.2,6516.24 6589.44,6570 6523.2,6570 C 6523.2,6570 3072.2,6570 3072.2,6570 C 3005.96,6570 2952.2,6516.24 2952.2,6450 " />
</svg>
