<?xml version="1.0" standalone="no" ?>
<!DOCTYPE svg PUBLIC "-//W3C//DTD SVG 1.1//EN" "http://www.w3.org/Graphics/SVG/1.1/DTD/svg11.dtd">
<svg width="256px" height="177px" viewBox="0 0 256 177" style="background-color: #ffffff00" xmlns="http://www.w3.org/2000/svg" xmlns:xlink="http://www.w3.org/1999/xlink" version="1.1" >
<text x="0" y="0" stroke="none" fill="#000000" transform="matrix(0.0666667 0 0 0.0666667 125.021 31)" font-style="normal" font-weight="normal" font-size="240px" font-family="Arial" >
K</text>
<text x="0" y="0" stroke="none" fill="#000000" transform="matrix(0.0666667 0 0 0.0666667 135.693 34.4667)" font-style="normal" font-weight="normal" font-size="180px" font-family="Arial" >
d</text>
<text x="0" y="0" stroke="none" fill="#000000" transform="matrix(0.0666667 0 0 0.0666667 142.367 24.7333)" font-style="normal" font-weight="normal" font-size="180px" font-family="Arial" >
*</text>
<text x="0" y="0" stroke="none" fill="#000000" transform="matrix(0.0666667 0 0 0.0666667 21.0213 50)" font-style="normal" font-weight="normal" font-size="240px" font-family="Arial" >
R </text>
<text x="0" y="0" stroke="none" fill="#000000" transform="matrix(0.0666667 0 0 0.0666667 37.0213 50)" font-style="normal" font-weight="normal" font-size="240px" font-family="Arial" >
+ </text>
<text x="0" y="0" stroke="none" fill="#000000" transform="matrix(0.0666667 0 0 0.0666667 50.8104 50)" font-style="normal" font-weight="normal" font-size="240px" font-family="Arial" >
L</text>
<text x="0" y="0" stroke="none" fill="#000000" transform="matrix(0.0666667 0 0 0.0666667 59.7088 43.7333)" font-style="normal" font-weight="normal" font-size="180px" font-family="Arial" >
*</text>
<text x="0" y="0" stroke="none" fill="#000000" transform="matrix(0.0666667 0 0 0.0666667 64.3787 50)" font-style="normal" font-weight="normal" font-size="240px" font-family="Arial" >
 </text>
<text x="0" y="0" stroke="none" fill="#000000" transform="matrix(0.0666667 0 0 0.0666667 68.8241 50)" font-style="normal" font-weight="normal" font-size="240px" font-family="Arial" >
+ </text>
<text x="0" y="0" stroke="none" fill="#000000" transform="matrix(0.0666667 0 0 0.0666667 82.6131 50)" font-style="normal" font-weight="normal" font-size="240px" font-family="Arial" >
L</text>
<path stroke="none" fill="#000000" transform="matrix(0.0666667 0 0 0.0666667 -190.859 -254)" d="M 5112.25,4447.99 L 4505.91,4447.99 L 4505.91,4436.99 L 5112.25,4436.99 Z " />
<path stroke="none" fill="#000000" transform="matrix(0.0666667 0 0 0.0666667 -190.859 -254)" d="M 5210.46,4442.49 C 5210.46,4442.49 5097.08,4471.84 5097.08,4471.84 C 5097.08,4471.84 5111.25,4455.33 5111.25,4442.49 C 5111.25,4429.22 5097.08,4412.15 5097.08,4412.15 C 5097.08,4412.15 5210.46,4442.49 5210.46,4442.49 C 5210.46,4442.49 5210.46,4442.49 5210.46,4442.49 " />
<path stroke="#000000" stroke-width="1" fill="none" transform="matrix(0.0666667 0 0 0.0666667 -190.859 -254)" d="M 5210.46,4442.49 C 5210.46,4442.49 5097.08,4471.84 5097.08,4471.84 C 5097.08,4471.84 5111.25,4455.33 5111.25,4442.49 C 5111.25,4429.22 5097.08,4412.15 5097.08,4412.15 C 5097.08,4412.15 5210.46,4442.49 5210.46,4442.49 C 5210.46,4442.49 5210.46,4442.49 5210.46,4442.49 " />
<path stroke="none" fill="#000000" transform="matrix(0.0666667 0 0 0.0666667 -190.859 -254)" d="M 4604.12,4499.47 L 5210.46,4499.47 L 5210.46,4510.47 L 4604.12,4510.47 Z " />
<path stroke="none" fill="#000000" transform="matrix(0.0666667 0 0 0.0666667 -190.859 -254)" d="M 4505.91,4504.97 C 4505.91,4504.97 4619.29,4474.63 4619.29,4474.63 C 4619.29,4474.63 4605.12,4491.7 4605.12,4504.97 C 4605.12,4517.81 4619.29,4534.32 4619.29,4534.32 C 4619.29,4534.32 4505.91,4504.97 4505.91,4504.97 C 4505.91,4504.97 4505.91,4504.97 4505.91,4504.97 " />
<path stroke="#000000" stroke-width="1" fill="none" transform="matrix(0.0666667 0 0 0.0666667 -190.859 -254)" d="M 4505.91,4504.97 C 4505.91,4504.97 4619.29,4474.63 4619.29,4474.63 C 4619.29,4474.63 4605.12,4491.7 4605.12,4504.97 C 4605.12,4517.81 4619.29,4534.32 4619.29,4534.32 C 4619.29,4534.32 4505.91,4504.97 4505.91,4504.97 C 4505.91,4504.97 4505.91,4504.97 4505.91,4504.97 " />
<text x="0" y="0" stroke="none" fill="#000000" transform="matrix(0.0666667 0 0 0.0666667 175.855 50)" font-style="normal" font-weight="normal" font-size="240px" font-family="Arial" >
RL</text>
<text x="0" y="0" stroke="none" fill="#000000" transform="matrix(0.0666667 0 0 0.0666667 196.308 43.7333)" font-style="normal" font-weight="normal" font-size="180px" font-family="Arial" >
*</text>
<text x="0" y="0" stroke="none" fill="#000000" transform="matrix(0.0666667 0 0 0.0666667 200.978 50)" font-style="normal" font-weight="normal" font-size="240px" font-family="Arial" >
 </text>
<text x="0" y="0" stroke="none" fill="#000000" transform="matrix(0.0666667 0 0 0.0666667 205.423 50)" font-style="normal" font-weight="normal" font-size="240px" font-family="Arial" >
+ </text>
<text x="0" y="0" stroke="none" fill="#000000" transform="matrix(0.0666667 0 0 0.0666667 219.212 50)" font-style="normal" font-weight="normal" font-size="240px" font-family="Arial" >
L</text>
<path stroke="none" fill="#000000" transform="matrix(0.0666667 0 0 0.0666667 -190.859 -254)" d="M 3749.7,5425.91 L 3749.34,4819.56 L 3760.34,4819.56 L 3760.7,5425.91 Z " />
<path stroke="none" fill="#000000" transform="matrix(0.0666667 0 0 0.0666667 -190.859 -254)" d="M 3755.26,5524.12 C 3755.26,5524.12 3725.85,5411.75 3725.85,5411.75 C 3725.85,5411.75 3742.36,5425.35 3755.2,5424.91 C 3768.04,5424.46 3784.54,5409.72 3784.54,5409.72 C 3784.54,5409.72 3755.26,5524.12 3755.26,5524.12 C 3755.26,5524.12 3755.26,5524.12 3755.26,5524.12 " />
<path stroke="#000000" stroke-width="1" fill="none" transform="matrix(0.0666667 0 0 0.0666667 -190.859 -254)" d="M 3755.26,5524.12 C 3755.26,5524.12 3725.85,5411.75 3725.85,5411.75 C 3725.85,5411.75 3742.36,5425.35 3755.2,5424.91 C 3768.04,5424.46 3784.54,5409.72 3784.54,5409.72 C 3784.54,5409.72 3755.26,5524.12 3755.26,5524.12 C 3755.26,5524.12 3755.26,5524.12 3755.26,5524.12 " />
<path stroke="none" fill="#000000" transform="matrix(0.0666667 0 0 0.0666667 -190.859 -254)" d="M 3697.92,4917.81 L 3698.28,5524.16 L 3687.28,5524.16 L 3686.92,4917.81 Z " />
<path stroke="none" fill="#000000" transform="matrix(0.0666667 0 0 0.0666667 -190.859 -254)" d="M 3692.36,4819.6 C 3692.36,4819.6 3721.77,4931.97 3721.77,4931.97 C 3721.77,4931.97 3705.26,4918.37 3692.42,4918.81 C 3679.58,4919.26 3663.08,4934 3663.08,4934 C 3663.08,4934 3692.36,4819.6 3692.36,4819.6 C 3692.36,4819.6 3692.36,4819.6 3692.36,4819.6 " />
<path stroke="#000000" stroke-width="1" fill="none" transform="matrix(0.0666667 0 0 0.0666667 -190.859 -254)" d="M 3692.36,4819.6 C 3692.36,4819.6 3721.77,4931.97 3721.77,4931.97 C 3721.77,4931.97 3705.26,4918.37 3692.42,4918.81 C 3679.58,4919.26 3663.08,4934 3663.08,4934 C 3663.08,4934 3692.36,4819.6 3692.36,4819.6 C 3692.36,4819.6 3692.36,4819.6 3692.36,4819.6 " />
<text x="0" y="0" stroke="none" fill="#000000" transform="matrix(0.0666667 0 0 0.0666667 29.0213 96)" font-style="normal" font-weight="normal" font-size="240px" font-family="Arial" >
K</text>
<text x="0" y="0" stroke="none" fill="#000000" transform="matrix(0.0666667 0 0 0.0666667 39.6932 99.4667)" font-style="normal" font-weight="normal" font-size="180px" font-family="Arial" >
d</text>
<text x="0" y="0" stroke="none" fill="#000000" transform="matrix(0.0666667 0 0 0.0666667 32.3547 144.5)" font-style="normal" font-weight="normal" font-size="240px" font-family="Arial" >
RL </text>
<text x="0" y="0" stroke="none" fill="#000000" transform="matrix(0.0666667 0 0 0.0666667 57.2531 144.5)" font-style="normal" font-weight="normal" font-size="240px" font-family="Arial" >
+ </text>
<text x="0" y="0" stroke="none" fill="#000000" transform="matrix(0.0666667 0 0 0.0666667 71.0422 144.5)" font-style="normal" font-weight="normal" font-size="240px" font-family="Arial" >
L</text>
<text x="0" y="0" stroke="none" fill="#000000" transform="matrix(0.0666667 0 0 0.0666667 79.9406 138.233)" font-style="normal" font-weight="normal" font-size="180px" font-family="Arial" >
*</text>
<clipPath id="1" >
<path clip-rule="evenodd" d="M -2.712,-3.23336 L 259.021,-3.23336 L 259.021,180 L -2.712,180 L -2.712,-3.23336 M 3.95467,160 C 3.95467,160 3.95467,11.4333 3.95467,11.4333 C 3.95467,7.01755 7.53891,3.43331 11.9547,3.43331 C 11.9547,3.43331 239.021,3.43331 239.021,3.43331 C 243.437,3.43331 247.021,7.01755 247.021,11.4333 C 247.021,11.4333 247.021,160 247.021,160 C 247.021,164.416 243.437,168 239.021,168 C 239.021,168 11.9547,168 11.9547,168 C 7.53891,168 3.95467,164.416 3.95467,160 " />
</clipPath>
<g clip-path="url(#1)" >
<path stroke="none" fill="#000000" transform="matrix(0.0666667 0 0 0.0666667 -221 -254)" fill-opacity="0.247059" d="M 3454.32,6290 C 3454.32,6290 3454.32,4061.5 3454.32,4061.5 C 3454.32,3995.26 3508.08,3941.5 3574.32,3941.5 C 3574.32,3941.5 6980.32,3941.5 6980.32,3941.5 C 7046.56,3941.5 7100.32,3995.26 7100.32,4061.5 C 7100.32,4061.5 7100.32,6290 7100.32,6290 C 7100.32,6356.24 7046.56,6410 6980.32,6410 C 6980.32,6410 3574.32,6410 3574.32,6410 C 3508.08,6410 3454.32,6356.24 3454.32,6290 " />
</g>
<path stroke="#000000" stroke-width="20" fill="none" transform="matrix(0.0666667 0 0 0.0666667 -190.859 -254)" d="M 2922.2,6210 C 2922.2,6210 2922.2,3981.5 2922.2,3981.5 C 2922.2,3915.26 2975.96,3861.5 3042.2,3861.5 C 3042.2,3861.5 6448.2,3861.5 6448.2,3861.5 C 6514.44,3861.5 6568.2,3915.26 6568.2,3981.5 C 6568.2,3981.5 6568.2,6210 6568.2,6210 C 6568.2,6276.24 6514.44,6330 6448.2,6330 C 6448.2,6330 3042.2,6330 3042.2,6330 C 2975.96,6330 2922.2,6276.24 2922.2,6210 " />
</svg>
