<svg width="299" height="34" viewBox="0 0 299 34" fill="none" xmlns="http://www.w3.org/2000/svg">
<path opacity="0.4" fill-rule="evenodd" clip-rule="evenodd" d="M23.2216 17.0002L30.9464 8.62441C32.6553 6.77446 32.5648 3.86703 30.7443 2.13041C30.7375 2.12431 30.7315 2.11777 30.7246 2.11167C28.8862 0.375054 26.0045 0.475311 24.2884 2.33572L13.6644 13.8565C12.0318 15.6245 12.0318 18.3767 13.6644 20.1443L24.2884 31.6646C26.0041 33.5246 28.8866 33.6262 30.7246 31.8891C32.5553 30.1634 32.663 27.2564 30.9648 25.3964C30.9584 25.3899 30.9524 25.3829 30.9464 25.3764L23.2216 17.0002Z" fill="#23E6A8"/>
<path fill-rule="evenodd" clip-rule="evenodd" d="M9.80759 17.0002L2.08237 8.62441C0.373901 6.77446 0.464407 3.86703 2.28483 2.13041C2.29127 2.12431 2.2977 2.11777 2.30456 2.11167C4.143 0.375054 7.02462 0.475311 8.74082 2.33572L19.3644 13.8565C20.9969 15.6245 20.9969 18.3767 19.3644 20.1443L8.74082 31.6646C7.02505 33.5246 4.14257 33.6262 2.30456 31.8891C0.473844 30.1634 0.36618 27.2564 2.06436 25.3964C2.07036 25.3899 2.0768 25.3829 2.08237 25.3764L9.80759 17.0002Z" fill="#23E6A8"/>
<path fill-rule="evenodd" clip-rule="evenodd" d="M150.273 13.5505C150.273 13.9812 150.554 14.3312 151.117 14.601C151.68 14.8704 152.365 15.1075 153.172 15.312C153.994 15.5212 154.803 15.7805 155.594 16.0879C156.401 16.4004 157.086 16.9226 157.649 17.6558C158.212 18.3885 158.494 19.3035 158.494 20.4032C158.494 22.0623 157.883 23.339 156.661 24.2339C155.44 25.1284 153.916 25.5747 152.089 25.5747C148.817 25.5747 146.587 24.2936 145.398 21.7288L148.967 19.6923C149.433 21.0928 150.474 21.7929 152.089 21.7929C153.555 21.7929 154.288 21.33 154.288 20.4032C154.288 19.9721 154.006 19.6225 153.443 19.3527C152.88 19.0833 152.195 18.841 151.388 18.6256C150.566 18.4051 149.757 18.1353 148.966 17.8171C148.159 17.4949 147.474 16.9819 146.912 16.2818C146.348 15.5813 146.066 14.7039 146.066 13.6477C146.066 12.0523 146.646 10.7978 147.803 9.88154C148.961 8.96529 150.4 8.50803 152.121 8.50803C153.416 8.50803 154.596 8.80401 155.658 9.39726C156.72 9.98921 157.559 10.8353 158.175 11.9337L154.669 13.8735C154.16 12.7746 153.31 12.2249 152.121 12.2249C151.589 12.2249 151.149 12.3435 150.799 12.5806C150.448 12.8173 150.273 13.1412 150.273 13.5505ZM132.237 20.3383C133.066 21.1791 134.118 21.5998 135.392 21.5998C136.667 21.5998 137.724 21.1735 138.563 20.3222C139.402 19.4709 139.821 18.3776 139.821 17.042C139.821 15.7051 139.402 14.6119 138.563 13.7602C137.724 12.9093 136.667 12.4839 135.392 12.4839C134.118 12.4839 133.066 12.9093 132.237 13.7606C131.408 14.6119 130.995 15.7051 130.995 17.042C130.995 18.3776 131.408 19.4765 132.237 20.3383ZM136.157 8.50803C138.302 8.50803 140.135 9.33188 141.654 10.9804C143.172 12.6294 143.932 14.6494 143.932 17.042C143.932 19.4334 143.172 21.4542 141.654 23.1023C140.135 24.7509 138.302 25.5747 136.157 25.5747C133.926 25.5747 132.206 24.7884 130.995 23.2156V25.1231H126.884V2.4957H130.995V10.8675C132.206 9.29395 133.927 8.50803 136.157 8.50803ZM111.462 20.3383C112.291 21.1791 113.341 21.5998 114.617 21.5998C115.891 21.5998 116.948 21.1735 117.787 20.3222C118.626 19.4709 119.046 18.3776 119.046 17.042C119.046 15.7051 118.626 14.6119 117.787 13.7602C116.948 12.9093 115.891 12.4839 114.617 12.4839C113.342 12.4839 112.291 12.9093 111.462 13.7606C110.634 14.6119 110.22 15.7051 110.22 17.042C110.22 18.3776 110.634 19.4765 111.462 20.3383ZM119.046 8.96049H123.156V25.1231H119.046V23.2156C117.814 24.7884 116.082 25.5747 113.852 25.5747C111.727 25.5747 109.906 24.7509 108.388 23.1023C106.868 21.4542 106.109 19.4334 106.109 17.042C106.109 14.6494 106.868 12.6294 108.387 10.9804C109.906 9.33188 111.727 8.50803 113.852 8.50803C116.082 8.50803 117.814 9.29395 119.046 10.8675V8.96049ZM99.0671 25.1227H103.177V1.52539H99.0671V25.1227ZM92.726 8.96049H97.1236L91.3243 25.1231C90.4951 27.45 89.3966 29.1369 88.0257 30.1813C86.6557 31.2266 84.9515 31.6952 82.9119 31.5871V27.7084C84.0164 27.7302 84.8927 27.4927 85.5404 26.9979C86.1881 26.5014 86.7037 25.7051 87.0859 24.6049L80.5536 8.96093H85.0467L89.189 19.8217L92.726 8.96049ZM80.2988 25.1231H75.5508L72.1099 20.2093L68.6367 25.1231H63.8884L69.7203 16.8803L64.144 8.96049H68.8915L72.1099 13.5187L75.3282 8.96049H80.0436L74.4673 16.8472L80.2988 25.1231ZM52.2911 20.242C53.119 21.0815 54.1493 21.5021 55.3808 21.5021C56.6131 21.5021 57.6439 21.0815 58.4717 20.242C59.3009 19.4015 59.7152 18.3349 59.7152 17.042C59.7152 15.7483 59.3009 14.6821 58.4717 13.8412C57.6439 13.0008 56.6131 12.5806 55.3808 12.5806C54.1493 12.5806 53.1241 13.0008 52.3061 13.8412C51.4881 14.6821 51.0798 15.7483 51.0798 17.042C51.0798 18.3349 51.483 19.4015 52.2907 20.2415L52.2911 20.242ZM61.3718 23.1184C59.7358 24.7561 57.7391 25.5747 55.3808 25.5747C53.0233 25.5747 51.0317 24.7509 49.4069 23.1023C47.7817 21.4542 46.9692 19.4334 46.9692 17.042C46.9692 14.6494 47.7817 12.6294 49.4069 10.9804C51.0317 9.33188 53.0233 8.50803 55.3808 8.50803C57.7391 8.50803 59.7358 9.33188 61.3718 10.9804C63.0078 12.6294 63.8253 14.6494 63.8253 17.042C63.8253 19.4334 63.0078 21.4599 61.3718 23.1184Z" fill="#130F35"/>
<path fill-rule="evenodd" clip-rule="evenodd" d="M162.552 11.1459H162.181V10.4336H162.552C163.005 10.4336 163.005 10.6965 163.005 10.7828C163.005 10.8726 163.005 11.1459 162.552 11.1459ZM163.503 10.7828C163.503 10.2549 163.139 9.92666 162.552 9.92666H161.683V12.3189H162.181V11.6524H162.552C162.574 11.6524 162.597 11.6519 162.621 11.6506L163.1 12.3189H163.718L163.133 11.5046C163.372 11.3534 163.503 11.0975 163.503 10.7828ZM162.568 13.018C161.54 13.018 160.703 12.168 160.703 11.1228C160.703 10.0779 161.54 9.22792 162.568 9.22792C163.597 9.22792 164.434 10.0779 164.434 11.1228C164.434 12.168 163.597 13.018 162.568 13.018ZM162.568 8.50781C161.149 8.50781 159.995 9.68125 159.995 11.1228C159.995 12.5647 161.149 13.7377 162.568 13.7377C163.988 13.7377 165.142 12.5647 165.142 11.1228C165.142 9.68125 163.987 8.50781 162.568 8.50781Z" fill="#130F35"/>
<path opacity="0.1" d="M179.562 3.86133V30.139" stroke="#130F35" stroke-width="0.847666"/>
<path d="M193.125 25.5349L198.949 8.92093H202.42L208.244 25.5349H205.982L200.86 10.3899H200.509L195.374 25.5349H193.125ZM196.505 20.6339V18.8139H204.851V20.6339H196.505Z" fill="#130F35"/>
<path d="M213.258 25.5349H211.048V8.92093H213.258V25.5349Z" fill="#130F35"/>
<path d="M228.561 25.8469C227.677 25.8469 226.862 25.7733 226.117 25.6259C225.38 25.4873 224.722 25.3139 224.141 25.1059C223.569 24.8893 223.088 24.6769 222.698 24.4689L222.477 22.2849C223.205 22.7096 224.076 23.0866 225.09 23.4159C226.113 23.7453 227.231 23.9099 228.444 23.9099C229.857 23.9099 230.905 23.6803 231.59 23.2209C232.275 22.7616 232.617 22.0683 232.617 21.1409V20.9719C232.617 20.3566 232.483 19.8583 232.214 19.4769C231.945 19.0956 231.49 18.7793 230.849 18.5279C230.208 18.2766 229.328 18.0556 228.21 17.8649C226.806 17.6049 225.684 17.2799 224.843 16.8899C224.011 16.4999 223.413 15.9973 223.049 15.3819C222.685 14.7666 222.503 13.9953 222.503 13.0679V12.9639C222.503 11.5686 222.984 10.4983 223.946 9.75293C224.917 8.99893 226.39 8.62193 228.366 8.62193C229.692 8.62193 230.819 8.75193 231.746 9.01193C232.682 9.27193 233.44 9.56226 234.021 9.88293L234.242 11.8979C233.549 11.4993 232.738 11.1656 231.811 10.8969C230.884 10.6196 229.831 10.4809 228.652 10.4809C227.716 10.4809 226.962 10.5849 226.39 10.7929C225.818 10.9923 225.402 11.2826 225.142 11.6639C224.891 12.0366 224.765 12.4873 224.765 13.0159V13.0679C224.765 13.6053 224.886 14.0646 225.129 14.4459C225.372 14.8186 225.809 15.1393 226.442 15.4079C227.083 15.6766 228.002 15.9236 229.198 16.1489C230.567 16.4089 231.668 16.7209 232.5 17.0849C233.332 17.4403 233.934 17.9256 234.307 18.5409C234.68 19.1476 234.866 19.9536 234.866 20.9589V21.1799C234.866 22.7226 234.337 23.8883 233.28 24.6769C232.231 25.4569 230.658 25.8469 228.561 25.8469Z" fill="#130F35"/>
<path d="M242.642 25.8079C241.576 25.8079 240.722 25.6519 240.081 25.3399C239.439 25.0279 238.971 24.5556 238.677 23.9229C238.382 23.2903 238.235 22.4973 238.235 21.5439V13.9389H240.38V21.3099C240.38 22.2113 240.588 22.8786 241.004 23.3119C241.428 23.7366 242.148 23.9489 243.162 23.9489C243.734 23.9489 244.288 23.8883 244.826 23.7669C245.363 23.6456 245.861 23.4636 246.321 23.2209L246.126 25.0799C245.666 25.3053 245.133 25.4829 244.527 25.6129C243.929 25.7429 243.3 25.8079 242.642 25.8079ZM235.999 14.8229V13.1069H246.23L246.022 14.8229H235.999ZM238.261 13.3149L238.248 9.70093L240.406 9.42793L240.315 13.3149H238.261Z" fill="#130F35"/>
<path d="M250.709 12.8989V20.4909C250.709 21.2016 250.813 21.8256 251.021 22.3629C251.229 22.8916 251.567 23.3033 252.035 23.5979C252.512 23.8926 253.153 24.0399 253.959 24.0399C254.704 24.0399 255.35 23.9056 255.896 23.6369C256.442 23.3596 256.884 22.9913 257.222 22.5319C257.569 22.0726 257.807 21.5526 257.937 20.9719L258.301 22.5319H257.846C257.707 23.1299 257.447 23.6803 257.066 24.1829C256.685 24.6856 256.169 25.0886 255.519 25.3919C254.878 25.6866 254.093 25.8339 253.166 25.8339C252.065 25.8339 251.177 25.6346 250.501 25.2359C249.825 24.8286 249.331 24.2436 249.019 23.4809C248.707 22.7183 248.551 21.7996 248.551 20.7249V12.8989H250.709ZM259.991 12.8989V25.5349H257.833L257.924 22.3239L257.833 22.1679V12.8989H259.991Z" fill="#130F35"/>
<path d="M268.291 25.8339C266.618 25.8339 265.335 25.3443 264.443 24.3649C263.55 23.3769 263.104 21.9426 263.104 20.0619V18.3979C263.104 16.5086 263.554 15.0699 264.456 14.0819C265.366 13.0939 266.67 12.5999 268.369 12.5999C269.235 12.5999 269.989 12.7386 270.631 13.0159C271.272 13.2933 271.792 13.6876 272.191 14.1989C272.589 14.7016 272.854 15.2953 272.984 15.9799H273.699L273.062 18.0339C273.027 17.2193 272.832 16.5389 272.477 15.9929C272.121 15.4469 271.645 15.0396 271.047 14.7709C270.457 14.4936 269.781 14.3549 269.019 14.3549C267.823 14.3549 266.895 14.6843 266.237 15.3429C265.587 16.0016 265.262 16.9723 265.262 18.2549V20.1659C265.262 21.4226 265.587 22.3846 266.237 23.0519C266.887 23.7106 267.818 24.0399 269.032 24.0399C269.76 24.0399 270.405 23.9056 270.969 23.6369C271.532 23.3683 272 22.9999 272.373 22.5319C272.745 22.0553 272.992 21.5223 273.114 20.9329L273.66 22.5189H273.01C272.88 23.1169 272.624 23.6673 272.243 24.1699C271.861 24.6726 271.346 25.0756 270.696 25.3789C270.054 25.6823 269.253 25.8339 268.291 25.8339ZM272.997 25.5349L273.101 22.2979L273.062 21.6089V16.7209L273.075 16.2529L273.01 12.5999V8.32293H275.155V25.5349H272.997Z" fill="#130F35"/>
<path d="M278.86 25.5349V12.8989H281.018V25.5349H278.86ZM279.939 10.7539C279.488 10.7539 279.15 10.6413 278.925 10.4159C278.7 10.1906 278.587 9.87426 278.587 9.46693V9.40193C278.587 9.00326 278.7 8.69126 278.925 8.46593C279.15 8.2406 279.488 8.12793 279.939 8.12793C280.39 8.12793 280.728 8.2406 280.953 8.46593C281.178 8.69126 281.291 9.00326 281.291 9.40193V9.46693C281.291 9.87426 281.178 10.1906 280.953 10.4159C280.728 10.6413 280.39 10.7539 279.939 10.7539Z" fill="#130F35"/>
<path d="M290.211 25.8729C288.226 25.8729 286.718 25.3659 285.687 24.3519C284.655 23.3379 284.14 21.8776 284.14 19.9709V18.4239C284.14 16.5259 284.655 15.0743 285.687 14.0689C286.718 13.0636 288.226 12.5609 290.211 12.5609C292.195 12.5609 293.703 13.0636 294.735 14.0689C295.766 15.0743 296.282 16.5259 296.282 18.4239V19.9709C296.282 21.8776 295.766 23.3379 294.735 24.3519C293.703 25.3659 292.195 25.8729 290.211 25.8729ZM290.211 24.1179C291.476 24.1179 292.442 23.7713 293.11 23.0779C293.786 22.3759 294.124 21.3706 294.124 20.0619V18.3329C294.124 17.0329 293.79 16.0363 293.123 15.3429C292.455 14.6496 291.485 14.3029 290.211 14.3029C288.945 14.3029 287.975 14.6496 287.299 15.3429C286.631 16.0363 286.298 17.0329 286.298 18.3329V20.0619C286.298 21.3706 286.631 22.3759 287.299 23.0779C287.975 23.7713 288.945 24.1179 290.211 24.1179Z" fill="#130F35"/>
</svg>
