<?xml version="1.0" encoding="UTF-8"?>
<svg version="1.1" viewBox="0 0 1600 1600" width="100" height="100" xmlns="http://www.w3.org/2000/svg" fill="currentColor">
<path transform="translate(832,133)" d="m0 0h59l31 3 23 4 25 7 20 7 20 9 26 14 15 10 19 14 13 11 12 11 13 13 9 11 11 13 12 17 9 13 12 20 7 12 8 17 14 32 8 19v6l-8 4-27 6-15 5-16 8-11 8-10 9h-2l-2 4h-2l-2 4-10 13-8 13-9 21-5 14-3 15-1 11v41l3 26 7 35 16 54 16 43 11 25 9 20 13 27 12 22 13 24 10 21 7 15 12 26 3 8-1 5-9 7-18 10-22 12-14 10-20 16-12 11-8 8-11 16-10 19-5 17-1 7-1 35-1 243-2 23-4 19-8 21-10 17-11 14-10 10-13 10-16 8-21 7-14 3-9 1h-19l-16-2-18-6-15-8-9-7-12-11-9-10-10-15-10-18-8-18-8-22-8-32-5-29-2-18-1-26v-169l1-60v-29l-2-13-6-12-8-9-9-6-18-7-21-7-3-3 7-18 6-12 11-27 12-32 11-36 8-32 5-30 4-36 1-13v-69l-5-60-4-39-5-28-1-2-1-8-6-21-8-20-7-13-9-11-9-8-15-7-23-5-25-2h-11l-28 2-23 4-27 6-22 6-19 6-12 3-4-1v-7l11-43 13-38 8-18 12-25 11-20 9-14 8-10 9-12 9-10 5-7h2l2-4 14-13 10-8 17-13 19-12 18-10 23-10 25-8 26-6 26-4z"/>
<path transform="translate(424,132)" d="m0 0h27l30 2 31 4 25 5 38 9 19 5 2 1-1 7-6 8-12 11-7 9-12 14-14 19-12 20-9 16-12 23-13 29-11 30-6 17-7 30-4 26-2 21-1 22v31l5 84v71l-2 27-3 28-1 28 2 24 5 25 9 29 9 20 7 14 12 19 9 12 9 11 14 15 10 9 17 13 22 12 6 5 3 2-16 9-13 5-11 5-31 11-30 11-19 9-10 6-11 8-7 6h-2l-2 4-7 10-7 12-4 14-1 7v16l5 19 7 12 7 11 6 10 1 8-2 1h-24l-19-2-17-5-23-12-14-10-12-11-8-7-4-4v-2h-2l-9-11-8-9-11-15-18-27-12-21-13-24-17-35-15-36-18-48-18-56-15-54-13-53-9-42-13-73-5-37-3-35-1-19v-48l3-33 5-29 8-32 8-23 9-21 15-29 7-10 12-17 3-4h2l2-4 15-16 15-15 11-9 10-8 15-10 23-13 25-11 24-8 23-6 22-4 17-2z"/>
<path fill="iconColor" transform="translate(1098,131)" d="m0 0h23l53 3 34 4 25 5 35 10 25 10 32 16 13 8 14 9 17 12 16 13 11 9 30 30 11 14 11 17 8 17 6 18 4 22 1 22-1 51-3 49-5 41-8 53-6 31-11 46-13 43-10 29-11 28-15 33-8 16-10 19-16 27-11 16-9 12-9 11-9 10-8 10-9 10-6 7-4 2-1 2-8-1-7-7-11-19-8-15-9-22-2-12 3-9 6-19 12-43 6-29 2-16 1-15v-36l-2-22-5-40v-35l5-48 1-15v-13l-4-42-2-36-2-40-4-17-13-34-14-30-12-22-13-22-16-24-14-19-12-14-14-15-20-20-12-9v-2l-4-2-10-6-4-4v-2h-2l-1-7z"/>
<path fill="iconColor" transform="translate(670,466)" d="m0 0h16l11 2 10 6 6 7 5 12 1 11-2 3h-5l-6-2-22-6-14-1-21 2-10 3-6 6v8l7 14 11 15 9 7 17 9 13 2 14-7 14-8 5-2 3 5 3 25 3 40 1 22v40l-2 33-4 31-7 32-8 28-12 36-10 24-10 23-6 8-3 1-38-15-19-9-18-12-12-11-9-9-14-19-9-16-11-23-6-20-4-24v-31l4-39 2-29v-45l-3-61-1-21 2-11 6-4 31-11 29-8 28-6 18-3z"/>
<path fill="iconColor" transform="translate(654,983)" d="m0 0h12l14 5 22 5 25 6 6 4 1 3v52l-2 15-6 8-10 6-19 8-13 4-22 4-16 2h-33l-15-2-10-1-28-5-30-7-12-4-11-6-10-8-3-4 1-8 5-6 15-9 12-6 30-10 16-6 20-8 29-14 16-9z"/>
<path fill="iconColor" transform="translate(1334,967)" d="m0 0h13l9 4 4 5v8l-5 9-8 11-11 14-17 17-14 10-15 9-23 12-32 14-30 11-15 5-28 7-21 4-5-2-3-5-1-4-1-23 3-17 4-8 9-10 7-8 7-7 18-13 14-8 17-10 9-6 10-5 8-2 27-1 37-6 30-4z"/>
<path fill="iconColor" transform="translate(1185,466)" d="m0 0h7l5 5 4 9 3 18v29l-5 29-2 18v40l5 39 3 27v24l-3 30-3 18-4 5-7-10-9-17-12-29-13-36-9-30-8-35-4-21v-11l4-3 19-7 12-6 12-11 3-6 1-4v-13l-2-7-7-6-26-6-3-3h2l1-5 5-8 8-5 13-7z"/>
<path fill="iconColor" transform="translate(1147,499)" d="m0 0"/>
</svg>
