<?xml version="1.0" encoding="UTF-8"?>
<svg version="1.1" viewBox="0 0 2048 2048" width="128" height="128" xmlns="http://www.w3.org/2000/svg">
<path transform="translate(492,781)" d="m0 0h739l104 1h40l91-1h82l45 2 24 4 16 6 15 8 13 10 10 9 9 10 10 15 6 14 7 21 2 11 1 34v951l-2 38-3 16-5 14-8 16-7 11-11 13-8 8-10 8-14 8-12 5-21 5-17 2-18 1h-1100l-28-2-17-4-15-6-14-8-11-9-13-13-12-17-8-15-6-17-4-18-1-11-1-36v-816l1-160 5-18 10-23 11-17 12-14 12-10 16-10 15-7 17-5 22-3zm199 62-215 1-23 2-12 4-12 7-8 7-6 8-8 16-3 13-1 15-1 110v829l1 40 3 19 5 13 8 11 4 5h2v2l10 7 15 6 15 2 19 1h1068l33-2 18-4 14-7 12-11 6-10 5-15 2-15 1-17v-719l1-107v-143l-1-14-4-14-8-14-11-12-10-7-11-4-11-1-126-1-366-1z" fill="#030303"/>
<path transform="translate(950,945)" d="m0 0h396l176 1 12 2 10 9 2 5 1 8v546l-1 15-4 8-5 4-9 4-21 1h-137l1 3-1 132-4 13-4 4-16 3h-38l-43-1 1 3v79l-1 36-2 22-4 9-6 3-15 3h-427l-14-2-5-4-5-11-3-17-1-17-1-104-27 1h-51l-14-2-5-4-4-11-3-12v-48l1-78h-148l-14-2-5-4-7-12-3-11-1-13v-141l1-353 1-44 4-10 6-7 7-3 6-1 93-1zm-178 60-17 1-57 2-2 1-1 10-2 152-1 21-4 10-6 8-11 4h-16l-8-4-6-5-5-8-2-8-1-9v-93l1-79-71-1-1 1-1 51-1 274v154h141l22 2 8 3 3 6 2 26 1 72v44l1 1 66 1 20 2 11 4 6 12 1 19v113l1 5h358l1-1 1-16 1-99 1-24 3-6 5-4 10-3 7-1h77l2-1 2-130 2-11 5-8 7-3 13-2 24-1h122l2-7v-202l-1-272-59 2-8 1-1 43-1 131-3 17-5 8-7 3-5 1h-20l-8-3-6-7-3-7-2-12-1-177-52 1-30 1-1 1-1 35-2 142-3 14-7 10-7 3-7 1h-13l-7-1-10-14-4-11-1-22-1-129-1-31-73 1-5 1-1 2-1 49-1 118-2 16-4 10-5 6-7 3-6 1h-10l-10-2-6-5-6-10-3-13-1-15v-163l-82 3-1 1-1 14-1 41-1 91-1 35-4 9-8 13-10 3-17-1-7-3-7-10-5-15-1-27-1-125-1-28-75 1-7 1-2 170-3 21-6 9-7 3-10 2h-9l-9-2-6-5-7-14-2-8-1-11v-167z" fill="#030303"/>
<path transform="translate(1154,25)" d="m0 0h130l17 1 9 2 5 3 5 12 1 7v139l-2 17-3 7-8 7-12 2-42 1h-104l-37-1-12-2-6-8-4-10-3-26v-29l-21 1-108 1-6 1-2 5-12 22-8 13-15 26-11 19-11 18-11 19-7 11-14 25-15 25-9 14h736l6 1-7-8-9-9-7-8-8-8-7-8-13-13-7-8-12-14-7-11-2-6v-8l5-8 8-8 10-7 2-1h10l10 4 14 12 16 16 8 7 57 57 8 7 21 21 13 17 7 14-1 5-6 9-12 14-12 13-23 23-7 8-52 52-8 7-4 4h-2v2l-14 11-15 10h-5l-10-8-8-7-8-10-2-5v-9l4-8 11-12 12-13 27-27 7-8 5-4 8-10 7-8-12 2h-463l-126 1 5 5 5 8 7 11 10 16 15 26 14 23 13 22 10 17 10 18 15 26 9 16 6 8 9 2 141-1 7-2 4-5 5-12 8-12 15-16 10-8 15-8 15-5 11-2h23l16 3 14 5 14 8 9 7 6 5 7 8 10 14 7 12 6 16 2 9v29l-4 16-11 21-10 14-15 15-10 7-16 8-17 5-5 1h-26l-15-3-14-5-17-11-10-9-9-10-9-13-11-20-58 1h-101l-20-1-6-2-7-6-10-15-13-21-17-29-13-22-12-20-13-22-9-15-11-19-15-25-17-29-14-24-7-10-7-1-314 1-10 19-12 20-9 11-7 8-13 10-18 11-14 6-18 6-4 1h-30l-17-3-15-5-16-9-11-8-10-9-9-9-12-17-10-19-6-17-3-17v-21l3-17 5-16 5-12 12-18 9-11 11-11 17-12 15-8 18-6 10-2h34l19 4 17 7 14 8 14 11 8 8 11 14 8 14 9 17 4 9 169-1 6-2 6-9 6-11 7-11 11-20 10-17 9-15 13-22 18-30 16-27 10-17 8-12 6-11 13-22 14-22 5-5 6-4 5-2 28-1h39l69 1h23l2-35 2-16 3-5 10-4 8-1zm0 60-1 49v23l2 3 6 1 47 1h37l15-1 2-2v-73l-1-1zm-689 228-14 4-11 6-11 10-9 12-6 12-2 8-1 13 2 12 8 16 10 11 5 6 13 8 15 6 4 1h15l13-5 14-9 10-9 9-13 5-12 3-16-2-14-5-13-7-11-9-10-11-7-10-4-9-2zm886 282-9 3-9 5-6 5-9 14-3 10v8l4 13 6 9 4 5 10 6 9 4h13l12-5 9-7 7-7 5-9 2-10v-8l-2-9-6-12-5-6-9-6-8-3z" fill="#030303"/>
<path transform="translate(1443,1694)" d="m0 0h122l14 3 6 3 6 7 2 4 1 15v168l-2 9-4 3-11 3-13 1h-157l-15-2-6-4-5-8-3-10-1-10-1-38v-32l1-88 3-9 7-8 6-5 3-1zm82 61-85 1-1 30v63l21 1h70l2-7v-87l-1-1z" fill="#030303"/>
<path transform="translate(518,1694)" d="m0 0h124l14 3 8 6 4 6 1 4v175l-2 13-7 6-11 4h-29l-148-1-9-3-6-7-4-12-2-14v-109l1-39 2-13 4-8 5-5 6-3 15-2zm-3 61-1 3v37l-1 48 1 7h90l2-1 1-9 1-31v-53l-1-1z" fill="#030303"/>
</svg>
