<?xml version="1.0" standalone="no" ?>
<!DOCTYPE svg PUBLIC "-//W3C//DTD SVG 1.1//EN" "http://www.w3.org/Graphics/SVG/1.1/DTD/svg11.dtd">
<svg width="213px" height="143px" viewBox="0 0 213 143" style="background-color: #ffffff00" xmlns="http://www.w3.org/2000/svg" xmlns:xlink="http://www.w3.org/1999/xlink" version="1.1" >
<text x="0" y="0" stroke="none" fill="#000000" transform="matrix(0.0666667 0 0 0.0666667 107.021 22)" font-style="normal" font-weight="normal" font-size="240px" font-family="Arial" >
K</text>
<text x="0" y="0" stroke="none" fill="#000000" transform="matrix(0.0666667 0 0 0.0666667 117.693 25.4667)" font-style="normal" font-weight="normal" font-size="180px" font-family="Arial" >
d</text>
<text x="0" y="0" stroke="none" fill="#000000" transform="matrix(0.0666667 0 0 0.0666667 124.367 15.7333)" font-style="normal" font-weight="normal" font-size="180px" font-family="Arial" >
*</text>
<text x="0" y="0" stroke="none" fill="#000000" transform="matrix(0.0666667 0 0 0.0666667 3.02132 41)" font-style="normal" font-weight="normal" font-size="240px" font-family="Arial" >
R </text>
<text x="0" y="0" stroke="none" fill="#000000" transform="matrix(0.0666667 0 0 0.0666667 19.0213 41)" font-style="normal" font-weight="normal" font-size="240px" font-family="Arial" >
+ </text>
<text x="0" y="0" stroke="none" fill="#000000" transform="matrix(0.0666667 0 0 0.0666667 32.8104 41)" font-style="normal" font-weight="normal" font-size="240px" font-family="Arial" >
L</text>
<text x="0" y="0" stroke="none" fill="#000000" transform="matrix(0.0666667 0 0 0.0666667 41.7088 34.7333)" font-style="normal" font-weight="normal" font-size="180px" font-family="Arial" >
*</text>
<text x="0" y="0" stroke="none" fill="#000000" transform="matrix(0.0666667 0 0 0.0666667 46.3787 41)" font-style="normal" font-weight="normal" font-size="240px" font-family="Arial" >
 </text>
<text x="0" y="0" stroke="none" fill="#000000" transform="matrix(0.0666667 0 0 0.0666667 50.8241 41)" font-style="normal" font-weight="normal" font-size="240px" font-family="Arial" >
+ </text>
<text x="0" y="0" stroke="none" fill="#000000" transform="matrix(0.0666667 0 0 0.0666667 64.6131 41)" font-style="normal" font-weight="normal" font-size="240px" font-family="Arial" >
L</text>
<path stroke="none" fill="#000000" transform="matrix(0.0666667 0 0 0.0666667 -208.859 -263)" d="M 5112.25,4447.99 L 4505.91,4447.99 L 4505.91,4436.99 L 5112.25,4436.99 Z " />
<path stroke="none" fill="#000000" transform="matrix(0.0666667 0 0 0.0666667 -208.859 -263)" d="M 5210.46,4442.49 C 5210.46,4442.49 5097.08,4471.84 5097.08,4471.84 C 5097.08,4471.84 5111.25,4455.33 5111.25,4442.49 C 5111.25,4429.22 5097.08,4412.15 5097.08,4412.15 C 5097.08,4412.15 5210.46,4442.49 5210.46,4442.49 C 5210.46,4442.49 5210.46,4442.49 5210.46,4442.49 " />
<path stroke="#000000" stroke-width="1" fill="none" transform="matrix(0.0666667 0 0 0.0666667 -208.859 -263)" d="M 5210.46,4442.49 C 5210.46,4442.49 5097.08,4471.84 5097.08,4471.84 C 5097.08,4471.84 5111.25,4455.33 5111.25,4442.49 C 5111.25,4429.22 5097.08,4412.15 5097.08,4412.15 C 5097.08,4412.15 5210.46,4442.49 5210.46,4442.49 C 5210.46,4442.49 5210.46,4442.49 5210.46,4442.49 " />
<path stroke="none" fill="#000000" transform="matrix(0.0666667 0 0 0.0666667 -208.859 -263)" d="M 4604.12,4499.47 L 5210.46,4499.47 L 5210.46,4510.47 L 4604.12,4510.47 Z " />
<path stroke="none" fill="#000000" transform="matrix(0.0666667 0 0 0.0666667 -208.859 -263)" d="M 4505.91,4504.97 C 4505.91,4504.97 4619.29,4474.63 4619.29,4474.63 C 4619.29,4474.63 4605.12,4491.7 4605.12,4504.97 C 4605.12,4517.81 4619.29,4534.32 4619.29,4534.32 C 4619.29,4534.32 4505.91,4504.97 4505.91,4504.97 C 4505.91,4504.97 4505.91,4504.97 4505.91,4504.97 " />
<path stroke="#000000" stroke-width="1" fill="none" transform="matrix(0.0666667 0 0 0.0666667 -208.859 -263)" d="M 4505.91,4504.97 C 4505.91,4504.97 4619.29,4474.63 4619.29,4474.63 C 4619.29,4474.63 4605.12,4491.7 4605.12,4504.97 C 4605.12,4517.81 4619.29,4534.32 4619.29,4534.32 C 4619.29,4534.32 4505.91,4504.97 4505.91,4504.97 C 4505.91,4504.97 4505.91,4504.97 4505.91,4504.97 " />
<text x="0" y="0" stroke="none" fill="#000000" transform="matrix(0.0666667 0 0 0.0666667 157.855 41)" font-style="normal" font-weight="normal" font-size="240px" font-family="Arial" >
RL</text>
<text x="0" y="0" stroke="none" fill="#000000" transform="matrix(0.0666667 0 0 0.0666667 178.308 34.7333)" font-style="normal" font-weight="normal" font-size="180px" font-family="Arial" >
*</text>
<text x="0" y="0" stroke="none" fill="#000000" transform="matrix(0.0666667 0 0 0.0666667 182.978 41)" font-style="normal" font-weight="normal" font-size="240px" font-family="Arial" >
 </text>
<text x="0" y="0" stroke="none" fill="#000000" transform="matrix(0.0666667 0 0 0.0666667 187.423 41)" font-style="normal" font-weight="normal" font-size="240px" font-family="Arial" >
+ </text>
<text x="0" y="0" stroke="none" fill="#000000" transform="matrix(0.0666667 0 0 0.0666667 201.212 41)" font-style="normal" font-weight="normal" font-size="240px" font-family="Arial" >
L</text>
<path stroke="none" fill="#000000" transform="matrix(0.0666667 0 0 0.0666667 -208.859 -263)" d="M 3749.7,5425.91 L 3749.34,4819.56 L 3760.34,4819.56 L 3760.7,5425.91 Z " />
<path stroke="none" fill="#000000" transform="matrix(0.0666667 0 0 0.0666667 -208.859 -263)" d="M 3755.26,5524.12 C 3755.26,5524.12 3725.85,5411.75 3725.85,5411.75 C 3725.85,5411.75 3742.36,5425.35 3755.2,5424.91 C 3768.04,5424.46 3784.54,5409.72 3784.54,5409.72 C 3784.54,5409.72 3755.26,5524.12 3755.26,5524.12 C 3755.26,5524.12 3755.26,5524.12 3755.26,5524.12 " />
<path stroke="#000000" stroke-width="1" fill="none" transform="matrix(0.0666667 0 0 0.0666667 -208.859 -263)" d="M 3755.26,5524.12 C 3755.26,5524.12 3725.85,5411.75 3725.85,5411.75 C 3725.85,5411.75 3742.36,5425.35 3755.2,5424.91 C 3768.04,5424.46 3784.54,5409.72 3784.54,5409.72 C 3784.54,5409.72 3755.26,5524.12 3755.26,5524.12 C 3755.26,5524.12 3755.26,5524.12 3755.26,5524.12 " />
<path stroke="none" fill="#000000" transform="matrix(0.0666667 0 0 0.0666667 -208.859 -263)" d="M 3697.92,4917.81 L 3698.28,5524.16 L 3687.28,5524.16 L 3686.92,4917.81 Z " />
<path stroke="none" fill="#000000" transform="matrix(0.0666667 0 0 0.0666667 -208.859 -263)" d="M 3692.36,4819.6 C 3692.36,4819.6 3721.77,4931.97 3721.77,4931.97 C 3721.77,4931.97 3705.26,4918.37 3692.42,4918.81 C 3679.58,4919.26 3663.08,4934 3663.08,4934 C 3663.08,4934 3692.36,4819.6 3692.36,4819.6 C 3692.36,4819.6 3692.36,4819.6 3692.36,4819.6 " />
<path stroke="#000000" stroke-width="1" fill="none" transform="matrix(0.0666667 0 0 0.0666667 -208.859 -263)" d="M 3692.36,4819.6 C 3692.36,4819.6 3721.77,4931.97 3721.77,4931.97 C 3721.77,4931.97 3705.26,4918.37 3692.42,4918.81 C 3679.58,4919.26 3663.08,4934 3663.08,4934 C 3663.08,4934 3692.36,4819.6 3692.36,4819.6 C 3692.36,4819.6 3692.36,4819.6 3692.36,4819.6 " />
<text x="0" y="0" stroke="none" fill="#000000" transform="matrix(0.0666667 0 0 0.0666667 11.0213 87)" font-style="normal" font-weight="normal" font-size="240px" font-family="Arial" >
K</text>
<text x="0" y="0" stroke="none" fill="#000000" transform="matrix(0.0666667 0 0 0.0666667 21.6932 90.4667)" font-style="normal" font-weight="normal" font-size="180px" font-family="Arial" >
d</text>
<text x="0" y="0" stroke="none" fill="#000000" transform="matrix(0.0666667 0 0 0.0666667 14.3547 135.5)" font-style="normal" font-weight="normal" font-size="240px" font-family="Arial" >
RL </text>
<text x="0" y="0" stroke="none" fill="#000000" transform="matrix(0.0666667 0 0 0.0666667 39.2531 135.5)" font-style="normal" font-weight="normal" font-size="240px" font-family="Arial" >
+ </text>
<text x="0" y="0" stroke="none" fill="#000000" transform="matrix(0.0666667 0 0 0.0666667 53.0422 135.5)" font-style="normal" font-weight="normal" font-size="240px" font-family="Arial" >
L</text>
<text x="0" y="0" stroke="none" fill="#000000" transform="matrix(0.0666667 0 0 0.0666667 61.9406 129.233)" font-style="normal" font-weight="normal" font-size="180px" font-family="Arial" >
*</text>
</svg>
