<?xml version="1.0" standalone="no" ?>
<!DOCTYPE svg PUBLIC "-//W3C//DTD SVG 1.1//EN" "http://www.w3.org/Graphics/SVG/1.1/DTD/svg11.dtd">
<svg width="204px" height="89px" viewBox="0 0 204 89" style="background-color: #ffffff00" xmlns="http://www.w3.org/2000/svg" xmlns:xlink="http://www.w3.org/1999/xlink" version="1.1" >
<text x="0" y="0" stroke="none" fill="#000000" transform="matrix(0.0666667 0 0 0.0666667 95.0213 33)" font-style="normal" font-weight="normal" font-size="240px" font-family="Arial" >
K</text>
<text x="0" y="0" stroke="none" fill="#000000" transform="matrix(0.0666667 0 0 0.0666667 105.693 36.4667)" font-style="normal" font-weight="normal" font-size="180px" font-family="Arial" >
d</text>
<text x="0" y="0" stroke="none" fill="#000000" transform="matrix(0.0666667 0 0 0.0666667 112.367 26.7333)" font-style="normal" font-weight="normal" font-size="180px" font-family="Arial" >
*</text>
<text x="0" y="0" stroke="none" fill="#000000" transform="matrix(0.0666667 0 0 0.0666667 18.0213 52)" font-style="normal" font-weight="normal" font-size="240px" font-family="Arial" >
R </text>
<text x="0" y="0" stroke="none" fill="#000000" transform="matrix(0.0666667 0 0 0.0666667 34.0213 52)" font-style="normal" font-weight="normal" font-size="240px" font-family="Arial" >
+ </text>
<text x="0" y="0" stroke="none" fill="#000000" transform="matrix(0.0666667 0 0 0.0666667 47.8104 52)" font-style="normal" font-weight="normal" font-size="240px" font-family="Arial" >
L</text>
<text x="0" y="0" stroke="none" fill="#000000" transform="matrix(0.0666667 0 0 0.0666667 56.7088 45.7333)" font-style="normal" font-weight="normal" font-size="180px" font-family="Arial" >
*</text>
<path stroke="none" fill="#000000" transform="matrix(0.0666667 0 0 0.0666667 -220.859 -252)" d="M 5112.25,4447.99 L 4505.91,4447.99 L 4505.91,4436.99 L 5112.25,4436.99 Z " />
<path stroke="none" fill="#000000" transform="matrix(0.0666667 0 0 0.0666667 -220.859 -252)" d="M 5210.46,4442.49 C 5210.46,4442.49 5097.08,4471.84 5097.08,4471.84 C 5097.08,4471.84 5111.25,4455.33 5111.25,4442.49 C 5111.25,4429.22 5097.08,4412.15 5097.08,4412.15 C 5097.08,4412.15 5210.46,4442.49 5210.46,4442.49 C 5210.46,4442.49 5210.46,4442.49 5210.46,4442.49 " />
<path stroke="#000000" stroke-width="1" fill="none" transform="matrix(0.0666667 0 0 0.0666667 -220.859 -252)" d="M 5210.46,4442.49 C 5210.46,4442.49 5097.08,4471.84 5097.08,4471.84 C 5097.08,4471.84 5111.25,4455.33 5111.25,4442.49 C 5111.25,4429.22 5097.08,4412.15 5097.08,4412.15 C 5097.08,4412.15 5210.46,4442.49 5210.46,4442.49 C 5210.46,4442.49 5210.46,4442.49 5210.46,4442.49 " />
<path stroke="none" fill="#000000" transform="matrix(0.0666667 0 0 0.0666667 -220.859 -252)" d="M 4604.12,4499.47 L 5210.46,4499.47 L 5210.46,4510.47 L 4604.12,4510.47 Z " />
<path stroke="none" fill="#000000" transform="matrix(0.0666667 0 0 0.0666667 -220.859 -252)" d="M 4505.91,4504.97 C 4505.91,4504.97 4619.29,4474.63 4619.29,4474.63 C 4619.29,4474.63 4605.12,4491.7 4605.12,4504.97 C 4605.12,4517.81 4619.29,4534.32 4619.29,4534.32 C 4619.29,4534.32 4505.91,4504.97 4505.91,4504.97 C 4505.91,4504.97 4505.91,4504.97 4505.91,4504.97 " />
<path stroke="#000000" stroke-width="1" fill="none" transform="matrix(0.0666667 0 0 0.0666667 -220.859 -252)" d="M 4505.91,4504.97 C 4505.91,4504.97 4619.29,4474.63 4619.29,4474.63 C 4619.29,4474.63 4605.12,4491.7 4605.12,4504.97 C 4605.12,4517.81 4619.29,4534.32 4619.29,4534.32 C 4619.29,4534.32 4505.91,4504.97 4505.91,4504.97 C 4505.91,4504.97 4505.91,4504.97 4505.91,4504.97 " />
<text x="0" y="0" stroke="none" fill="#000000" transform="matrix(0.0666667 0 0 0.0666667 145.855 52)" font-style="normal" font-weight="normal" font-size="240px" font-family="Arial" >
RL</text>
<text x="0" y="0" stroke="none" fill="#000000" transform="matrix(0.0666667 0 0 0.0666667 166.308 45.7333)" font-style="normal" font-weight="normal" font-size="180px" font-family="Arial" >
*</text>
<clipPath id="1" >
<path clip-rule="evenodd" d="M -3.09202,-3.23336 L 206.641,-3.23336 L 206.641,92.25 L -3.09202,92.25 L -3.09202,-3.23336 M 3.57464,72.25 C 3.57464,72.25 3.57464,11.4333 3.57464,11.4333 C 3.57464,7.01755 7.15888,3.43331 11.5746,3.43331 C 11.5746,3.43331 186.641,3.43331 186.641,3.43331 C 191.057,3.43331 194.641,7.01755 194.641,11.4333 C 194.641,11.4333 194.641,72.25 194.641,72.25 C 194.641,76.6658 191.057,80.25 186.641,80.25 C 186.641,80.25 11.5746,80.25 11.5746,80.25 C 7.15888,80.25 3.57464,76.6658 3.57464,72.25 " />
</clipPath>
<g clip-path="url(#1)" >
<path stroke="none" fill="#000000" transform="matrix(0.0666667 0 0 0.0666667 -251 -252)" fill-opacity="0.247059" d="M 3898.62,4943.75 C 3898.62,4943.75 3898.62,4031.5 3898.62,4031.5 C 3898.62,3965.26 3952.38,3911.5 4018.62,3911.5 C 4018.62,3911.5 6644.62,3911.5 6644.62,3911.5 C 6710.86,3911.5 6764.62,3965.26 6764.62,4031.5 C 6764.62,4031.5 6764.62,4943.75 6764.62,4943.75 C 6764.62,5009.99 6710.86,5063.75 6644.62,5063.75 C 6644.62,5063.75 4018.62,5063.75 4018.62,5063.75 C 3952.38,5063.75 3898.62,5009.99 3898.62,4943.75 " />
</g>
<path stroke="#000000" stroke-width="20" fill="none" transform="matrix(0.0666667 0 0 0.0666667 -220.859 -252)" d="M 3366.5,4863.75 C 3366.5,4863.75 3366.5,3951.5 3366.5,3951.5 C 3366.5,3885.26 3420.26,3831.5 3486.5,3831.5 C 3486.5,3831.5 6112.5,3831.5 6112.5,3831.5 C 6178.74,3831.5 6232.5,3885.26 6232.5,3951.5 C 6232.5,3951.5 6232.5,4863.75 6232.5,4863.75 C 6232.5,4929.99 6178.74,4983.75 6112.5,4983.75 C 6112.5,4983.75 3486.5,4983.75 3486.5,4983.75 C 3420.26,4983.75 3366.5,4929.99 3366.5,4863.75 " />
</svg>
