<?xml version="1.0" encoding="UTF-8"?>
<svg version="1.1" viewBox="0 0 700 700" width="180" height="180" xmlns="http://www.w3.org/2000/svg">
<path transform="translate(274,164)" d="m0 0 5 1 6 26 6 15 10 21 9 14 5 6h3l-7-10-8-19-4-17-1-7v-14l4-8 3-3h2l3 29 4 19 7 21 11 20 7 9-2-9-8-18v-8l4-9 3-2 2 6 6 38 4 13 6 9 2 4 9 2 5 4 10 13 9 15 16 28 12 18 11 12 5 4 10 4 4 1h12l12-3 15-7h8l17 5 9 7-1 4-12 5-7 6-11 15-4 4v3l23 12 39 19 8 5 4 7 18 10 10 5h8l10-3 9-4 7-3 4-3h3v5l-8 10-22 18-4 2-7-1-7-2-5 1-1 5 6 8 2 2v3l-6-1-13-6-3 5-4 1-10-1-4-3-5 1-6 4-7-3h-5l-3 3-13-2-16-3-5 1-4 1-8-5-7 1-6 1-11-4-12-6-3-3v-2l-5 1-8-4-8-5-4-6-4 1-2 4-4-1-6-7-7-4 9 12 4 4-1 7-6 18-4 6-10 2-10 9-16 8-10 3h-6l-2-1v6l-16 1-14-3-3-8-7 1-5 1-3-4-8-4-5-4-2-3-2-12-4-11v-12l-2-5v-5l9-11-1-4-1-5 2-4 5-4 3-12 4-4 3-1h23l30 4h14l9-1-1-5-15-3-4-6-2-6-5-2-13-3-4-4-2-8-9-4-8-9-7-11-10-15-10-16 3-3-1-5-7-9-3-10-8-12 1-8-7-10-1-4 7-2h2l-2-5 1-7-6-1-5-5 1-4 6 1 9 7 2 1-8-14-16-24v-4l7 2 13 6-4-6-23-23-3-5v-6l3-1 8 6 20 18 14 10 8 4 3 1-1-4-4-2-8-7-6-7-9-16-5-12-1-4v-18h4l13 26 8 14 12 17 11 12 6 3-2-4-8-7-9-15-6-12-5-15-3-16v-11zm53 382-1 4 4 2-1-6z" fill="#DDDDDD"/>
</svg>
