<?xml version="1.0" encoding="UTF-8"?>
<svg version="1.1" viewBox="0 0 800 800" width="200" height="200" xmlns="http://www.w3.org/2000/svg">
<path  fill="#BF201A" transform="translate(369,1)" d="m0 0h48l26 2 24 3 26 5 31 9 23 8 27 12 25 13 22 14 14 10 11 8 17 14 10 10 8 7 7 7 7 8 11 12 11 14 13 18 9 14 9 15 12 23 9 20 9 24 10 34 4 18 4 28 2 18v62l-5 38-5 25-7 25-8 24-11 26-13 25-13 22-8 12-14 19-12 14-7 8-15 16-15 14-17 14-13 10-21 14-21 12-24 13-24 10-33 11-26 7-30 5-25 3h-62l-45-6-27-6-35-11-31-13-19-10-12-6-24-15-16-12-13-10-10-9-8-7-16-15-11-12-9-10-13-17-13-18-15-25-12-22-12-28-12-36-6-23-4-21-3-24-2-23v-40l4-38 4-25 8-30 9-27 12-29 12-23 12-20 12-18 10-14 11-13 7-8 9-10 19-19 8-7 13-11 19-14 17-11 18-11 29-15 20-8 16-6 30-9 21-5 27-4zm24 108-10 5-11 11-6 10-8 17-7 21-7 34-5 35v77l3 22 7 42 4 22 10 42 7 28 14 52 6 17 3 5 3 2h8l5-5 9-27 12-45 7-28 10-43 7-40 6-36 1-12v-68l-2-19-6-36-6-26-8-20-8-16-6-8-8-8-10-5zm3 473-13 3-14 7-10 9-7 10-4 10-3 15 2 13 3 10 7 12 8 8 15 9 9 3h22l13-5 14-10 7-8 6-12 3-17-1-13-3-10-6-11-8-9-14-9-12-4z"/>
<!--<path transform="translate(143,762)" d="m0 0" fill="#FCFCFC"/>-->
<!--<path transform="translate(147,758)" d="m0 0" fill="#FCFCFC"/>-->
<!--<path transform="translate(151,754)" d="m0 0" fill="#FCFCFC"/>-->
<!--<path transform="translate(155,750)" d="m0 0" fill="#FCFCFC"/>-->
<!--<path transform="translate(159,746)" d="m0 0" fill="#FCFCFC"/>-->
<!--<path transform="translate(67,682)" d="m0 0" fill="#FCFCFC"/>-->
<!--<path transform="translate(71,678)" d="m0 0" fill="#FCFCFC"/>-->
<!--<path transform="translate(75,674)" d="m0 0" fill="#FCFCFC"/>-->
<!--<path transform="translate(76,673)" d="m0 0" fill="#FCFCFC"/>-->
<!--<path transform="translate(78,671)" d="m0 0" fill="#FCFCFC"/>-->
<!--<path transform="translate(79,670)" d="m0 0" fill="#FCFCFC"/>-->
</svg>
