<?xml version="1.0" encoding="utf-8" standalone="no"?>
<!DOCTYPE svg PUBLIC "-//W3C//DTD SVG 1.1//EN"
  "http://www.w3.org/Graphics/SVG/1.1/DTD/svg11.dtd">
<svg xmlns:xlink="http://www.w3.org/1999/xlink" width="228.702812pt" height="180.72pt" viewBox="0 0 228.702812 180.72" xmlns="http://www.w3.org/2000/svg" version="1.1">
 <metadata>
  <rdf:RDF xmlns:dc="http://purl.org/dc/elements/1.1/" xmlns:cc="http://creativecommons.org/ns#" xmlns:rdf="http://www.w3.org/1999/02/22-rdf-syntax-ns#">
   <cc:Work>
    <dc:type rdf:resource="http://purl.org/dc/dcmitype/StillImage"/>
    <dc:date>2024-05-27T09:35:50.482176</dc:date>
    <dc:format>image/svg+xml</dc:format>
    <dc:creator>
     <cc:Agent>
      <dc:title>Matplotlib v3.7.1, https://matplotlib.org/</dc:title>
     </cc:Agent>
    </dc:creator>
   </cc:Work>
  </rdf:RDF>
 </metadata>
 <defs>
  <style type="text/css">*{stroke-linejoin: round; stroke-linecap: butt}</style>
 </defs>
 <g id="figure_1">
  <g id="patch_1">
   <path d="M 0 180.72 
L 228.702812 180.72 
L 228.702812 0 
L 0 0 
z
" style="fill: #ffffff"/>
  </g>
  <g id="axes_1">
   <g id="patch_2">
    <path d="M 117.928147 93.257529 
C 118.029313 92.294999 118.08 91.327832 118.08 90.36 
C 118.08 89.392168 118.029313 88.425001 117.928147 87.462471 
L 118.264479 87.427121 
C 118.36688 88.401394 118.418185 89.380361 118.418185 90.36 
C 118.418185 91.339639 118.36688 92.318606 118.264479 93.292879 
z
" clip-path="url(#p58bfcfc8c9)" style="fill: #1f77b4"/>
   </g>
   <g id="patch_3">
    <path d="M 117.928147 87.462471 
C 117.826981 86.499941 117.675475 85.54337 117.474251 84.596688 
C 117.273028 83.650006 117.022363 82.714511 116.723287 81.794049 
L 117.107645 81.669163 
C 117.411082 82.603046 117.665401 83.552179 117.869558 84.512663 
C 118.073715 85.473147 118.22743 86.443664 118.330071 87.420227 
z
" clip-path="url(#p58bfcfc8c9)" style="fill: #1f77b4"/>
   </g>
   <g id="patch_4">
    <path d="M 116.723287 81.794049 
C 116.42421 80.873586 116.077133 79.969418 115.68348 79.08526 
C 115.289828 78.201102 114.85014 77.338167 114.366224 76.5 
L 114.706847 76.303341 
C 115.197629 77.153401 115.643555 78.02858 116.042793 78.925284 
C 116.442031 79.821987 116.794034 80.738984 117.097354 81.672507 
z
" clip-path="url(#p58bfcfc8c9)" style="fill: #1f77b4"/>
   </g>
   <g id="patch_5">
    <path d="M 114.366224 76.5 
C 113.882308 75.661833 113.354828 74.849585 112.785951 74.066593 
C 112.217074 73.283601 111.60758 72.530939 110.959975 71.8117 
L 111.133454 71.655498 
C 111.786514 72.380794 112.40114 73.139794 112.974808 73.92938 
C 113.548476 74.718966 114.080398 75.538055 114.568389 76.38328 
z
" clip-path="url(#p58bfcfc8c9)" style="fill: #1f77b4"/>
   </g>
   <g id="patch_6">
    <path d="M 110.959975 71.8117 
C 110.312369 71.092461 109.627539 70.407631 108.9083 69.760025 
C 108.189061 69.11242 107.436399 68.502926 106.653407 67.934049 
L 108.505992 65.384185 
C 109.378011 66.017745 110.216252 66.696539 111.017269 67.417778 
C 111.818287 68.139017 112.580983 68.901713 113.302222 69.702731 
z
" clip-path="url(#p58bfcfc8c9)" style="fill: #1f77b4"/>
   </g>
   <g id="patch_7">
    <path d="M 106.653407 67.934049 
C 105.870415 67.365172 105.058167 66.837692 104.22 66.353776 
C 103.381833 65.86986 102.518898 65.430172 101.63474 65.03652 
L 104.546192 58.49729 
C 105.658665 58.992595 106.744434 59.545822 107.799039 60.154698 
C 108.853644 60.763575 109.875637 61.427265 110.86082 62.143042 
z
" clip-path="url(#p58bfcfc8c9)" style="fill: #1f77b4"/>
   </g>
   <g id="patch_8">
    <path d="M 101.63474 65.03652 
C 100.750582 64.642867 99.846414 64.29579 98.925951 63.996713 
C 98.005489 63.697637 97.069994 63.446972 96.123312 63.245749 
L 96.522919 61.365747 
C 97.53524 61.580922 98.535598 61.848967 99.519882 62.168781 
C 100.504166 62.488594 101.471026 62.859737 102.416488 63.280684 
z
" clip-path="url(#p58bfcfc8c9)" style="fill: #1f77b4"/>
   </g>
   <g id="patch_9">
    <path d="M 96.123312 63.245749 
C 95.17663 63.044525 94.220059 62.893019 93.257529 62.791853 
C 92.294999 62.690687 91.327832 62.64 90.36 62.64 
L 90.36 62.029552 
C 91.349145 62.029552 92.337612 62.081356 93.321338 62.184749 
C 94.305065 62.288143 95.282701 62.442986 96.250231 62.64864 
z
" clip-path="url(#p58bfcfc8c9)" style="fill: #1f77b4"/>
   </g>
   <g id="patch_10">
    <path d="M 90.36 62.64 
C 89.392168 62.64 88.425001 62.690687 87.462471 62.791853 
C 86.499941 62.893019 85.54337 63.044525 84.596688 63.245749 
L 83.966554 60.2812 
C 85.016742 60.057976 86.0779 59.889905 87.145668 59.777678 
C 88.213437 59.665451 89.28635 59.609222 90.36 59.609222 
z
" clip-path="url(#p58bfcfc8c9)" style="fill: #1f77b4"/>
   </g>
   <g id="patch_11">
    <path d="M 84.596688 63.245749 
C 83.650006 63.446972 82.714511 63.697637 81.794049 63.996713 
C 80.873586 64.29579 79.969418 64.642867 79.08526 65.03652 
L 68.753915 41.83194 
C 70.448251 41.077573 72.180933 40.412459 73.944839 39.839331 
C 75.708746 39.266202 77.501459 38.785846 79.315611 38.400237 
z
" clip-path="url(#p58bfcfc8c9)" style="fill: #1f77b4"/>
   </g>
   <g id="patch_12">
    <path d="M 79.08526 65.03652 
C 78.201102 65.430172 77.338167 65.86986 76.5 66.353776 
C 75.661833 66.837692 74.849585 67.365172 74.066593 67.934049 
L 58.011335 45.835882 
C 59.565874 44.706442 61.178499 43.659192 62.842582 42.698433 
C 64.506664 41.737675 66.219922 40.864726 67.975315 40.083175 
z
" clip-path="url(#p58bfcfc8c9)" style="fill: #1f77b4"/>
   </g>
   <g id="patch_13">
    <path d="M 74.066593 67.934049 
C 73.283601 68.502926 72.530939 69.11242 71.8117 69.760025 
C 71.092461 70.407631 70.407631 71.092461 69.760025 71.8117 
L 44.633856 49.187995 
C 46.071358 47.591487 47.591487 46.071358 49.187995 44.633856 
C 50.784503 43.196354 52.455201 41.843449 54.193223 40.580702 
z
" clip-path="url(#p58bfcfc8c9)" style="fill: #1f77b4"/>
   </g>
   <g id="patch_14">
    <path d="M 69.760025 71.8117 
C 69.11242 72.530939 68.502926 73.283601 67.934049 74.066593 
C 67.365172 74.849585 66.837692 75.661833 66.353776 76.5 
L 31.259005 56.238025 
C 32.450359 54.17454 33.748964 52.174863 35.149484 50.247212 
C 36.550004 48.319561 38.050519 46.466581 39.644861 44.695884 
z
" clip-path="url(#p58bfcfc8c9)" style="fill: #1f77b4"/>
   </g>
   <g id="patch_15">
    <path d="M 66.353776 76.5 
C 65.86986 77.338167 65.430172 78.201102 65.03652 79.08526 
C 64.642867 79.969418 64.29579 80.873586 63.996713 81.794049 
L 33.986548 72.043155 
C 34.626072 70.074901 35.368239 68.14149 36.209999 66.250866 
C 37.051759 64.360243 37.991957 62.515001 39.026729 60.722722 
z
" clip-path="url(#p58bfcfc8c9)" style="fill: #1f77b4"/>
   </g>
   <g id="patch_16">
    <path d="M 63.996713 81.794049 
C 63.697637 82.714511 63.446972 83.650006 63.245749 84.596688 
C 63.044525 85.54337 62.893019 86.499941 62.791853 87.462471 
L 19.399717 82.901774 
C 19.660118 80.424227 20.050093 77.962017 20.568042 75.525261 
C 21.08599 73.088506 21.731201 70.680548 22.501022 68.311281 
z
" clip-path="url(#p58bfcfc8c9)" style="fill: #1f77b4"/>
   </g>
   <g id="patch_17">
    <path d="M 62.791853 87.462471 
C 62.690687 88.425001 62.64 89.392168 62.64 90.36 
C 62.64 91.327832 62.690687 92.294999 62.791853 93.257529 
L 16.072274 98.167955 
C 15.799662 95.574232 15.663076 92.96801 15.663076 90.36 
C 15.663076 87.75199 15.799662 85.145768 16.072274 82.552045 
z
" clip-path="url(#p58bfcfc8c9)" style="fill: #1f77b4"/>
   </g>
   <g id="patch_18">
    <path d="M 62.791853 93.257529 
C 62.893019 94.220059 63.044525 95.17663 63.245749 96.123312 
C 63.446972 97.069994 63.697637 98.005489 63.996713 98.925951 
L 19.144239 113.499403 
C 18.336337 111.012937 17.65921 108.485864 17.11564 105.928569 
C 16.572071 103.371275 16.162804 100.787266 15.889522 98.187163 
z
" clip-path="url(#p58bfcfc8c9)" style="fill: #1f77b4"/>
   </g>
   <g id="patch_19">
    <path d="M 63.996713 98.925951 
C 64.29579 99.846414 64.642867 100.750582 65.03652 101.63474 
C 65.430172 102.518898 65.86986 103.381833 66.353776 104.22 
L 33.269444 123.321248 
C 32.118616 121.327957 31.07297 119.275761 30.136803 117.173095 
C 29.200636 115.070429 28.375231 112.920175 27.66398 110.731172 
z
" clip-path="url(#p58bfcfc8c9)" style="fill: #1f77b4"/>
   </g>
   <g id="patch_20">
    <path d="M 66.353776 104.22 
C 66.837692 105.058167 67.365172 105.870415 67.934049 106.653407 
C 68.502926 107.436399 69.11242 108.189061 69.760025 108.9083 
L 45.944017 130.35233 
C 44.547703 128.801566 43.233562 127.178738 42.006996 125.490514 
C 40.78043 123.80229 39.64312 122.050987 38.59974 120.2438 
z
" clip-path="url(#p58bfcfc8c9)" style="fill: #1f77b4"/>
   </g>
   <g id="patch_21">
    <path d="M 69.760025 108.9083 
C 70.407631 109.627539 71.092461 110.312369 71.8117 110.959975 
C 72.530939 111.60758 73.283601 112.217074 74.066593 112.785951 
L 56.414947 137.081358 
C 54.783691 135.896181 53.215624 134.626386 51.71719 133.277189 
C 50.218755 131.927992 48.792008 130.501245 47.442811 129.00281 
z
" clip-path="url(#p58bfcfc8c9)" style="fill: #1f77b4"/>
   </g>
   <g id="patch_22">
    <path d="M 74.066593 112.785951 
C 74.849585 113.354828 75.661833 113.882308 76.5 114.366224 
C 77.338167 114.85014 78.201102 115.289828 79.08526 115.68348 
L 71.311659 133.143275 
C 69.8179 132.47821 68.359996 131.735371 66.943938 130.917809 
C 65.52788 130.100248 64.15561 129.209086 62.832768 128.247985 
z
" clip-path="url(#p58bfcfc8c9)" style="fill: #1f77b4"/>
   </g>
   <g id="patch_23">
    <path d="M 79.08526 115.68348 
C 79.969418 116.077133 80.873586 116.42421 81.794049 116.723287 
C 82.714511 117.022363 83.650006 117.273028 84.596688 117.474251 
L 81.467583 132.195531 
C 80.006914 131.885056 78.563507 131.498296 77.143293 131.036841 
C 75.723079 130.575385 74.328007 130.039867 72.963808 129.432487 
z
" clip-path="url(#p58bfcfc8c9)" style="fill: #1f77b4"/>
   </g>
   <g id="patch_24">
    <path d="M 84.596688 117.474251 
C 85.54337 117.675475 86.499941 117.826981 87.462471 117.928147 
C 88.425001 118.029313 89.392168 118.08 90.36 118.08 
L 90.36 130.071788 
C 88.97348 130.071788 87.587912 129.999173 86.208988 129.854243 
C 84.830064 129.709312 83.459676 129.492264 82.103455 129.20399 
z
" clip-path="url(#p58bfcfc8c9)" style="fill: #1f77b4"/>
   </g>
   <g id="patch_25">
    <path d="M 90.36 118.08 
C 91.327832 118.08 92.294999 118.029313 93.257529 117.928147 
C 94.220059 117.826981 95.17663 117.675475 96.123312 117.474251 
L 98.515714 128.729619 
C 97.176056 129.014372 95.822403 129.228769 94.460319 129.37193 
C 93.098235 129.515091 91.729587 129.586819 90.36 129.586819 
z
" clip-path="url(#p58bfcfc8c9)" style="fill: #1f77b4"/>
   </g>
   <g id="patch_26">
    <path d="M 96.123312 117.474251 
C 97.069994 117.273028 98.005489 117.022363 98.925951 116.723287 
C 99.846414 116.42421 100.750582 116.077133 101.63474 115.68348 
L 105.605877 124.6028 
C 104.410305 125.135103 103.187675 125.604427 101.943011 126.008843 
C 100.698348 126.413259 99.433358 126.752212 98.153239 127.024309 
z
" clip-path="url(#p58bfcfc8c9)" style="fill: #1f77b4"/>
   </g>
   <g id="patch_27">
    <path d="M 101.63474 115.68348 
C 102.518898 115.289828 103.381833 114.85014 104.22 114.366224 
C 105.058167 113.882308 105.870415 113.354828 106.653407 112.785951 
L 110.558444 118.160774 
C 109.587793 118.865994 108.580873 119.519895 107.541823 120.119791 
C 106.502773 120.719686 105.433018 121.264754 104.336954 121.752753 
z
" clip-path="url(#p58bfcfc8c9)" style="fill: #1f77b4"/>
   </g>
   <g id="patch_28">
    <path d="M 106.653407 112.785951 
C 107.436399 112.217074 108.189061 111.60758 108.9083 110.959975 
C 109.627539 110.312369 110.312369 109.627539 110.959975 108.9083 
L 114.995882 112.542248 
C 114.221398 113.402399 113.402399 114.221398 112.542248 114.995882 
C 111.682097 115.770365 110.781975 116.49927 109.84558 117.1796 
z
" clip-path="url(#p58bfcfc8c9)" style="fill: #1f77b4"/>
   </g>
   <g id="patch_29">
    <path d="M 110.959975 108.9083 
C 111.60758 108.189061 112.217074 107.436399 112.785951 106.653407 
C 113.354828 105.870415 113.882308 105.058167 114.366224 104.22 
L 119.649763 107.270453 
C 119.059342 108.293092 118.415768 109.284108 117.721687 110.239429 
C 117.027606 111.19475 116.283968 112.113066 115.493831 112.990603 
z
" clip-path="url(#p58bfcfc8c9)" style="fill: #1f77b4"/>
   </g>
   <g id="patch_30">
    <path d="M 114.366224 104.22 
C 114.85014 103.381833 115.289828 102.518898 115.68348 101.63474 
C 116.077133 100.750582 116.42421 99.846414 116.723287 98.925951 
L 120.939405 100.295851 
C 120.592499 101.363517 120.189916 102.412284 119.733309 103.43784 
C 119.276702 104.463396 118.766698 105.464335 118.205392 106.436545 
z
" clip-path="url(#p58bfcfc8c9)" style="fill: #1f77b4"/>
   </g>
   <g id="patch_31">
    <path d="M 116.723287 98.925951 
C 117.022363 98.005489 117.273028 97.069994 117.474251 96.123312 
C 117.675475 95.17663 117.826981 94.220059 117.928147 93.257529 
L 120.03623 93.479097 
C 119.927328 94.51523 119.764237 95.544948 119.547626 96.564022 
C 119.331016 97.583095 119.061183 98.590124 118.739237 99.580973 
z
" clip-path="url(#p58bfcfc8c9)" style="fill: #1f77b4"/>
   </g>
   <g id="patch_32">
    <path d="M 118.264479 93.292879 
C 118.36688 92.318606 118.418185 91.339639 118.418185 90.36 
C 118.418185 89.380361 118.36688 88.401394 118.264479 87.427121 
L 173.06129 81.667744 
C 173.364777 84.555223 173.516832 87.456616 173.516832 90.36 
C 173.516832 93.263384 173.364777 96.164777 173.06129 99.052256 
z
" clip-path="url(#p58bfcfc8c9)" style="fill: #ff7f0e"/>
   </g>
   <g id="patch_33">
    <path d="M 118.330071 87.420227 
C 118.22743 86.443664 118.073715 85.473147 117.869558 84.512663 
C 117.665401 83.552179 117.411082 82.603046 117.107645 81.669163 
L 168.316934 65.030257 
C 169.201311 67.752089 169.942533 70.51837 170.537557 73.317734 
C 171.13258 76.117098 171.580587 78.945705 171.879737 81.79193 
z
" clip-path="url(#p58bfcfc8c9)" style="fill: #ff7f0e"/>
   </g>
   <g id="patch_34">
    <path d="M 117.097354 81.672507 
C 116.794034 80.738984 116.442031 79.821987 116.042793 78.925284 
C 115.643555 78.02858 115.197629 77.153401 114.706847 76.303341 
L 157.274294 51.727014 
C 158.623148 54.063297 159.848721 56.46862 160.945977 58.933098 
C 162.043234 61.397576 163.010668 63.91783 163.844306 66.483502 
z
" clip-path="url(#p58bfcfc8c9)" style="fill: #ff7f0e"/>
   </g>
   <g id="patch_35">
    <path d="M 114.568389 76.38328 
C 114.080398 75.538055 113.548476 74.718966 112.974808 73.92938 
C 112.40114 73.139794 111.786514 72.380794 111.133454 71.655498 
L 138.946279 46.612718 
C 140.473696 48.309087 141.911223 50.084285 143.252954 51.93102 
C 144.594685 53.777754 145.838779 55.69349 146.980123 57.670357 
z
" clip-path="url(#p58bfcfc8c9)" style="fill: #ff7f0e"/>
   </g>
   <g id="patch_36">
    <path d="M 113.302222 69.702731 
C 112.580983 68.901713 111.818287 68.139017 111.017269 67.417778 
C 110.216252 66.696539 109.378011 66.017745 108.505992 65.384185 
L 128.319863 38.112732 
C 130.144053 39.438083 131.897581 40.858062 133.573241 42.366834 
C 135.248901 43.875605 136.844395 45.471099 138.353166 47.146759 
z
" clip-path="url(#p58bfcfc8c9)" style="fill: #ff7f0e"/>
   </g>
   <g id="patch_37">
    <path d="M 110.86082 62.143042 
C 109.875637 61.427265 108.853644 60.763575 107.799039 60.154698 
C 106.744434 59.545822 105.658665 58.992595 104.546192 58.49729 
L 115.568738 33.740248 
C 117.545592 34.620399 119.474994 35.603479 121.349018 36.685447 
C 123.223041 37.767415 125.039114 38.946787 126.789775 40.218716 
z
" clip-path="url(#p58bfcfc8c9)" style="fill: #ff7f0e"/>
   </g>
   <g id="patch_38">
    <path d="M 102.416488 63.280684 
C 101.471026 62.859737 100.504166 62.488594 99.519882 62.168781 
C 98.535598 61.848967 97.53524 61.580922 96.522919 61.365747 
L 101.206085 39.333182 
C 102.987664 39.711869 104.748188 40.1836 106.480424 40.746437 
C 108.212659 41.309275 109.91423 41.962447 111.578144 42.703269 
z
" clip-path="url(#p58bfcfc8c9)" style="fill: #ff7f0e"/>
   </g>
   <g id="patch_39">
    <path d="M 96.250231 62.64864 
C 95.282701 62.442986 94.305065 62.288143 93.321338 62.184749 
C 92.337612 62.081356 91.349145 62.029552 90.36 62.029552 
L 90.36 57.822686 
C 91.496026 57.822686 92.631273 57.882182 93.761075 58.000929 
C 94.890878 58.119676 96.013687 58.297511 97.124888 58.533704 
z
" clip-path="url(#p58bfcfc8c9)" style="fill: #ff7f0e"/>
   </g>
   <g id="patch_40">
    <path d="M 90.36 59.609222 
C 89.28635 59.609222 88.213437 59.665451 87.145668 59.777678 
C 86.0779 59.889905 85.016742 60.057976 83.966554 60.2812 
L 83.23842 56.855599 
C 84.408211 56.606952 85.590222 56.41974 86.779596 56.294732 
C 87.96897 56.169724 89.164075 56.107091 90.36 56.107091 
z
" clip-path="url(#p58bfcfc8c9)" style="fill: #ff7f0e"/>
   </g>
   <g id="patch_41">
    <path d="M 79.315611 38.400237 
C 77.501459 38.785846 75.708746 39.266202 73.944839 39.839331 
C 72.180933 40.412459 70.448251 41.077573 68.753915 41.83194 
L 62.106124 26.900755 
C 64.321775 25.914284 66.587571 25.044526 68.894199 24.295057 
C 71.200827 23.545588 73.545125 22.917436 75.917458 22.413181 
z
" clip-path="url(#p58bfcfc8c9)" style="fill: #ff7f0e"/>
   </g>
   <g id="patch_42">
    <path d="M 67.975315 40.083175 
C 66.219922 40.864726 64.506664 41.737675 62.842582 42.698433 
C 61.178499 43.659192 59.565874 44.706442 58.011335 45.835882 
L 47.300668 31.093914 
C 49.369917 29.590516 51.516483 28.19652 53.731544 26.917654 
C 55.946606 25.638787 58.227125 24.476805 60.56373 23.436481 
z
" clip-path="url(#p58bfcfc8c9)" style="fill: #ff7f0e"/>
   </g>
   <g id="patch_43">
    <path d="M 54.193223 40.580702 
C 52.455201 41.843449 50.784503 43.196354 49.187995 44.633856 
C 47.591487 46.071358 46.071358 47.591487 44.633856 49.187995 
L 37.519206 42.781935 
C 39.180373 40.937022 40.937022 39.180373 42.781935 37.519206 
C 44.626848 35.858039 46.557494 34.294632 48.56594 32.835411 
z
" clip-path="url(#p58bfcfc8c9)" style="fill: #ff7f0e"/>
   </g>
   <g id="patch_44">
    <path d="M 39.644861 44.695884 
C 38.050519 46.466581 36.550004 48.319561 35.149484 50.247212 
C 33.748964 52.174863 32.450359 54.17454 31.259005 56.238025 
L 26.571674 53.531793 
C 27.857515 51.304652 29.259113 49.14638 30.770709 47.065846 
C 32.282305 44.985312 33.901826 42.98537 35.622617 41.074239 
z
" clip-path="url(#p58bfcfc8c9)" style="fill: #ff7f0e"/>
   </g>
   <g id="patch_45">
    <path d="M 39.026729 60.722722 
C 37.991957 62.515001 37.051759 64.360243 36.209999 66.250866 
C 35.368239 68.14149 34.626072 70.074901 33.986548 72.043155 
L 16.406236 66.330965 
C 17.245199 63.748902 18.218814 61.212548 19.32308 58.732326 
C 20.427347 56.252103 21.660749 53.831414 23.01822 51.480205 
z
" clip-path="url(#p58bfcfc8c9)" style="fill: #ff7f0e"/>
   </g>
   <g id="patch_46">
    <path d="M 22.501022 68.311281 
C 21.731201 70.680548 21.08599 73.088506 20.568042 75.525261 
C 20.050093 77.962017 19.660118 80.424227 19.399717 82.901774 
L 8.356194 81.741053 
C 8.657121 78.877926 9.107788 76.032523 9.706345 73.216536 
C 10.304901 70.40055 11.050525 67.617842 11.940154 64.879847 
z
" clip-path="url(#p58bfcfc8c9)" style="fill: #ff7f0e"/>
   </g>
   <g id="patch_47">
    <path d="M 16.072274 82.552045 
C 15.799662 85.145768 15.663076 87.75199 15.663076 90.36 
C 15.663076 92.96801 15.799662 95.574232 16.072274 98.167955 
L 7.954515 99.021165 
C 7.652114 96.144014 7.500603 93.252999 7.500603 90.36 
C 7.500603 87.467001 7.652114 84.575986 7.954515 81.698835 
z
" clip-path="url(#p58bfcfc8c9)" style="fill: #ff7f0e"/>
   </g>
   <g id="patch_48">
    <path d="M 15.889522 98.187163 
C 16.162804 100.787266 16.572071 103.371275 17.11564 105.928569 
C 17.65921 108.485864 18.336337 111.012937 19.144239 113.499403 
L 11.278493 116.055139 
C 10.381358 113.294043 9.629443 110.487857 9.025836 107.64811 
C 8.42223 104.808364 7.967759 101.938953 7.664294 99.051669 
z
" clip-path="url(#p58bfcfc8c9)" style="fill: #ff7f0e"/>
   </g>
   <g id="patch_49">
    <path d="M 27.66398 110.731172 
C 28.375231 112.920175 29.200636 115.070429 30.136803 117.173095 
C 31.07297 119.275761 32.118616 121.327957 33.269444 123.321248 
L 18.341332 131.939997 
C 16.889585 129.425497 15.570522 126.836691 14.389565 124.184217 
C 13.208607 121.531743 12.167374 118.819239 11.270145 116.057852 
z
" clip-path="url(#p58bfcfc8c9)" style="fill: #ff7f0e"/>
   </g>
   <g id="patch_50">
    <path d="M 38.59974 120.2438 
C 39.64312 122.050987 40.78043 123.80229 42.006996 125.490514 
C 43.233562 127.178738 44.547703 128.801566 45.944017 130.35233 
L 28.579365 145.987534 
C 26.637154 143.83049 24.809243 141.573209 23.103145 139.224966 
C 21.397046 136.876722 19.815099 134.440738 18.363805 131.927022 
z
" clip-path="url(#p58bfcfc8c9)" style="fill: #ff7f0e"/>
   </g>
   <g id="patch_51">
    <path d="M 47.442811 129.00281 
C 48.792008 130.501245 50.218755 131.927992 51.71719 133.277189 
C 53.215624 134.626386 54.783691 135.896181 56.414947 137.081358 
L 41.497952 157.61284 
C 39.149849 155.906843 36.892702 154.079042 34.735787 152.136947 
C 32.578872 150.194852 30.525148 148.141128 28.583053 145.984213 
z
" clip-path="url(#p58bfcfc8c9)" style="fill: #ff7f0e"/>
   </g>
   <g id="patch_52">
    <path d="M 62.832768 128.247985 
C 64.15561 129.209086 65.52788 130.100248 66.943938 130.917809 
C 68.359996 131.735371 69.8179 132.47821 71.311659 133.143275 
L 56.540129 166.320674 
C 53.887996 165.139868 51.299522 163.820975 48.785345 162.369414 
C 46.271168 160.917854 43.834737 159.335616 41.486062 157.629204 
z
" clip-path="url(#p58bfcfc8c9)" style="fill: #ff7f0e"/>
   </g>
   <g id="patch_53">
    <path d="M 72.963808 129.432487 
C 74.328007 130.039867 75.723079 130.575385 77.143293 131.036841 
C 78.563507 131.498296 80.006914 131.885056 81.467583 132.195531 
L 73.070509 171.700661 
C 70.230535 171.097006 67.424124 170.345031 64.662808 169.447825 
C 61.901492 168.550619 59.189057 167.509413 56.536651 166.328485 
z
" clip-path="url(#p58bfcfc8c9)" style="fill: #ff7f0e"/>
   </g>
   <g id="patch_54">
    <path d="M 82.103455 129.20399 
C 83.459676 129.492264 84.830064 129.709312 86.208988 129.854243 
C 87.587912 129.999173 88.97348 130.071788 90.36 130.071788 
L 90.36 173.518819 
C 87.456547 173.518819 84.555084 173.36676 81.667536 173.063266 
C 78.779988 172.759773 75.910315 172.305261 73.070309 171.701599 
z
" clip-path="url(#p58bfcfc8c9)" style="fill: #ff7f0e"/>
   </g>
   <g id="patch_55">
    <path d="M 90.36 129.586819 
C 91.729587 129.586819 93.098235 129.515091 94.460319 129.37193 
C 95.822403 129.228769 97.176056 129.014372 98.515714 128.729619 
L 107.649936 171.702752 
C 104.809889 172.306423 101.940176 172.760941 99.052587 173.064439 
C 96.164998 173.367936 93.263495 173.519998 90.36 173.519998 
z
" clip-path="url(#p58bfcfc8c9)" style="fill: #ff7f0e"/>
   </g>
   <g id="patch_56">
    <path d="M 98.153239 127.024309 
C 99.433358 126.752212 100.698348 126.413259 101.943011 126.008843 
C 103.187675 125.604427 104.410305 125.135103 105.605877 124.6028 
L 124.180548 166.322194 
C 121.528361 167.503023 118.816152 168.544143 116.055064 169.441275 
C 113.293976 170.338407 110.487797 171.09032 107.648059 171.693925 
z
" clip-path="url(#p58bfcfc8c9)" style="fill: #ff7f0e"/>
   </g>
   <g id="patch_57">
    <path d="M 104.336954 121.752753 
C 105.433018 121.264754 106.502773 120.719686 107.541823 120.119791 
C 108.580873 119.519895 109.587793 118.865994 110.558444 118.160774 
L 139.101675 157.44716 
C 136.759356 159.148954 134.329518 160.72691 131.822145 162.174542 
C 129.314772 163.622174 126.733304 164.937498 124.088347 166.115109 
z
" clip-path="url(#p58bfcfc8c9)" style="fill: #ff7f0e"/>
   </g>
   <g id="patch_58">
    <path d="M 109.84558 117.1796 
C 110.781975 116.49927 111.682097 115.770365 112.542248 114.995882 
C 113.402399 114.221398 114.221398 113.402399 114.995882 112.542248 
L 151.838194 145.715215 
C 149.905492 147.861699 147.861699 149.905492 145.715215 151.838194 
C 143.568731 153.770897 141.3225 155.589859 138.985752 157.287606 
z
" clip-path="url(#p58bfcfc8c9)" style="fill: #ff7f0e"/>
   </g>
   <g id="patch_59">
    <path d="M 115.493831 112.990603 
C 116.283968 112.113066 117.027606 111.19475 117.721687 110.239429 
C 118.415768 109.284108 119.059342 108.293092 119.649763 107.270453 
L 158.6107 129.76456 
C 157.234908 132.147503 155.735259 134.456759 154.117918 136.682839 
C 152.500576 138.908918 150.76776 141.048768 148.92659 143.093595 
z
" clip-path="url(#p58bfcfc8c9)" style="fill: #ff7f0e"/>
   </g>
   <g id="patch_60">
    <path d="M 118.205392 106.436545 
C 118.766698 105.464335 119.276702 104.463396 119.733309 103.43784 
C 120.189916 102.412284 120.592499 101.363517 120.939405 100.295851 
L 166.036516 114.94879 
C 165.178009 117.591003 164.181713 120.186441 163.051723 122.72444 
C 161.921733 125.26244 160.659598 127.739519 159.270505 130.145499 
z
" clip-path="url(#p58bfcfc8c9)" style="fill: #ff7f0e"/>
   </g>
   <g id="patch_61">
    <path d="M 118.739237 99.580973 
C 119.061183 98.590124 119.331016 97.583095 119.547626 96.564022 
C 119.764237 95.544948 119.927328 94.51523 120.03623 93.479097 
L 173.05325 99.051411 
C 172.749793 101.938609 172.295336 104.807935 171.691748 107.647597 
C 171.088159 110.487259 170.336266 113.293362 169.439158 116.054376 
z
" clip-path="url(#p58bfcfc8c9)" style="fill: #ff7f0e"/>
   </g>
   <g id="patch_62">
    <path d="M 173.06129 99.052256 
C 173.364777 96.164777 173.516832 93.263384 173.516832 90.36 
C 173.516832 87.456616 173.364777 84.555223 173.06129 81.667744 
L 173.064441 81.667413 
C 173.367939 84.555002 173.52 87.456505 173.52 90.36 
C 173.52 93.263495 173.367939 96.164998 173.064441 99.052587 
z
" clip-path="url(#p58bfcfc8c9)" style="fill: #2ca02c"/>
   </g>
   <g id="patch_63">
    <path d="M 171.879737 81.79193 
C 171.580587 78.945705 171.13258 76.117098 170.537557 73.317734 
C 169.942533 70.51837 169.201311 67.752089 168.316934 65.030257 
L 169.44986 64.662147 
C 170.347089 67.423534 171.099084 70.230017 171.702754 73.070064 
C 172.306425 75.91011 172.760943 78.779824 173.064441 81.667413 
z
" clip-path="url(#p58bfcfc8c9)" style="fill: #2ca02c"/>
   </g>
   <g id="patch_64">
    <path d="M 163.844306 66.483502 
C 163.010668 63.91783 162.043234 61.397576 160.945977 58.933098 
C 159.848721 56.46862 158.623148 54.063297 157.274294 51.727014 
L 162.378673 48.78 
C 163.83042 51.2945 165.149483 53.883306 166.33044 56.535781 
C 167.511398 59.188255 168.552631 61.900759 169.44986 64.662147 
z
" clip-path="url(#p58bfcfc8c9)" style="fill: #2ca02c"/>
   </g>
   <g id="patch_65">
    <path d="M 146.980123 57.670357 
C 145.838779 55.69349 144.594685 53.777754 143.252954 51.93102 
C 141.911223 50.084285 140.473696 48.309087 138.946279 46.612718 
L 152.159924 34.715099 
C 154.102741 36.872816 155.931222 39.130802 157.637853 41.479778 
C 159.344485 43.828755 160.926925 46.2655 162.378673 48.78 
z
" clip-path="url(#p58bfcfc8c9)" style="fill: #2ca02c"/>
   </g>
   <g id="patch_66">
    <path d="M 138.353166 47.146759 
C 136.844395 45.471099 135.248901 43.875605 133.573241 42.366834 
C 131.897581 40.858062 130.144053 39.438083 128.319863 38.112732 
L 139.240222 23.082147 
C 141.589198 24.788778 143.847184 26.617259 146.004901 28.560076 
C 148.162618 30.502893 150.217107 32.557382 152.159924 34.715099 
z
" clip-path="url(#p58bfcfc8c9)" style="fill: #2ca02c"/>
   </g>
   <g id="patch_67">
    <path d="M 126.789775 40.218716 
C 125.039114 38.946787 123.223041 37.767415 121.349018 36.685447 
C 119.474994 35.603479 117.545592 34.620399 115.568738 33.740248 
L 124.184219 14.38956 
C 126.836694 15.570517 129.4255 16.88958 131.94 18.341327 
C 134.4545 19.793075 136.891245 21.375515 139.240222 23.082147 
z
" clip-path="url(#p58bfcfc8c9)" style="fill: #2ca02c"/>
   </g>
   <g id="patch_68">
    <path d="M 111.578144 42.703269 
C 109.91423 41.962447 108.212659 41.309275 106.480424 40.746437 
C 104.748188 40.1836 102.987664 39.711869 101.206085 39.333182 
L 107.649936 9.017246 
C 110.489983 9.620916 113.296466 10.372911 116.057853 11.27014 
C 118.819241 12.167369 121.531745 13.208602 124.184219 14.38956 
z
" clip-path="url(#p58bfcfc8c9)" style="fill: #2ca02c"/>
   </g>
   <g id="patch_69">
    <path d="M 97.124888 58.533704 
C 96.013687 58.297511 94.890878 58.119676 93.761075 58.000929 
C 92.631273 57.882182 91.496026 57.822686 90.36 57.822686 
L 90.36 7.2 
C 93.263495 7.2 96.164998 7.352061 99.052587 7.655559 
C 101.940176 7.959057 104.80989 8.413575 107.649936 9.017246 
z
" clip-path="url(#p58bfcfc8c9)" style="fill: #2ca02c"/>
   </g>
   <g id="patch_70">
    <path d="M 90.36 56.107091 
C 89.164075 56.107091 87.96897 56.169724 86.779596 56.294732 
C 85.590222 56.41974 84.408211 56.606952 83.23842 56.855599 
L 73.070064 9.017246 
C 75.91011 8.413575 78.779824 7.959057 81.667413 7.655559 
C 84.555002 7.352061 87.456505 7.2 90.36 7.2 
z
" clip-path="url(#p58bfcfc8c9)" style="fill: #2ca02c"/>
   </g>
   <g id="patch_71">
    <path d="M 75.917458 22.413181 
C 73.545125 22.917436 71.200827 23.545588 68.894199 24.295057 
C 66.587571 25.044526 64.321775 25.914284 62.106124 26.900755 
L 56.535781 14.38956 
C 59.188255 13.208602 61.900759 12.167369 64.662147 11.27014 
C 67.423534 10.372911 70.230017 9.620916 73.070064 9.017246 
z
" clip-path="url(#p58bfcfc8c9)" style="fill: #2ca02c"/>
   </g>
   <g id="patch_72">
    <path d="M 60.56373 23.436481 
C 58.227125 24.476805 55.946606 25.638787 53.731544 26.917654 
C 51.516483 28.19652 49.369917 29.590516 47.300668 31.093914 
L 41.479778 23.082147 
C 43.828755 21.375515 46.2655 19.793075 48.78 18.341327 
C 51.2945 16.88958 53.883306 15.570517 56.535781 14.38956 
z
" clip-path="url(#p58bfcfc8c9)" style="fill: #2ca02c"/>
   </g>
   <g id="patch_73">
    <path d="M 48.56594 32.835411 
C 46.557494 34.294632 44.626848 35.858039 42.781935 37.519206 
C 40.937022 39.180373 39.180373 40.937022 37.519206 42.781935 
L 28.560076 34.715099 
C 30.502893 32.557382 32.557382 30.502893 34.715099 28.560076 
C 36.872816 26.617259 39.130802 24.788778 41.479778 23.082147 
z
" clip-path="url(#p58bfcfc8c9)" style="fill: #2ca02c"/>
   </g>
   <g id="patch_74">
    <path d="M 35.622617 41.074239 
C 33.901826 42.98537 32.282305 44.985312 30.770709 47.065846 
C 29.259113 49.14638 27.857515 51.304652 26.571674 53.531793 
L 18.341327 48.78 
C 19.793075 46.2655 21.375515 43.828755 23.082147 41.479778 
C 24.788778 39.130802 26.617259 36.872816 28.560076 34.715099 
z
" clip-path="url(#p58bfcfc8c9)" style="fill: #2ca02c"/>
   </g>
   <g id="patch_75">
    <path d="M 23.01822 51.480205 
C 21.660749 53.831414 20.427347 56.252103 19.32308 58.732326 
C 18.218814 61.212548 17.245199 63.748902 16.406236 66.330965 
L 11.27014 64.662147 
C 12.167369 61.900759 13.208602 59.188255 14.38956 56.535781 
C 15.570517 53.883306 16.88958 51.2945 18.341327 48.78 
z
" clip-path="url(#p58bfcfc8c9)" style="fill: #2ca02c"/>
   </g>
   <g id="patch_76">
    <path d="M 11.940154 64.879847 
C 11.050525 67.617842 10.304901 70.40055 9.706345 73.216536 
C 9.107788 76.032523 8.657121 78.877926 8.356194 81.741053 
L 7.655559 81.667413 
C 7.959057 78.779824 8.413575 75.91011 9.017246 73.070064 
C 9.620916 70.230017 10.372911 67.423534 11.27014 64.662147 
z
" clip-path="url(#p58bfcfc8c9)" style="fill: #2ca02c"/>
   </g>
   <g id="patch_77">
    <path d="M 7.954515 81.698835 
C 7.652114 84.575986 7.500603 87.467001 7.500603 90.36 
C 7.500603 93.252999 7.652114 96.144014 7.954515 99.021165 
L 7.655559 99.052587 
C 7.352061 96.164998 7.2 93.263495 7.2 90.36 
C 7.2 87.456505 7.352061 84.555002 7.655559 81.667413 
z
" clip-path="url(#p58bfcfc8c9)" style="fill: #2ca02c"/>
   </g>
   <g id="patch_78">
    <path d="M 7.664294 99.051669 
C 7.967759 101.938953 8.42223 104.808364 9.025836 107.64811 
C 9.629443 110.487857 10.381358 113.294043 11.278493 116.055139 
L 11.27014 116.057853 
C 10.372911 113.296466 9.620916 110.489983 9.017246 107.649936 
C 8.413575 104.80989 7.959057 101.940176 7.655559 99.052587 
z
" clip-path="url(#p58bfcfc8c9)" style="fill: #2ca02c"/>
   </g>
   <g id="patch_79">
    <path d="M 11.270145 116.057852 
C 12.167374 118.819239 13.208607 121.531743 14.389565 124.184217 
C 15.570522 126.836691 16.889585 129.425497 18.341332 131.939997 
L 18.341327 131.94 
C 16.88958 129.4255 15.570517 126.836694 14.38956 124.184219 
C 13.208602 121.531745 12.167369 118.819241 11.27014 116.057853 
z
" clip-path="url(#p58bfcfc8c9)" style="fill: #2ca02c"/>
   </g>
   <g id="patch_80">
    <path d="M 18.363805 131.927022 
C 19.815099 134.440738 21.397046 136.876722 23.103145 139.224966 
C 24.809243 141.573209 26.637154 143.83049 28.579365 145.987534 
L 28.560076 146.004901 
C 26.617259 143.847184 24.788778 141.589198 23.082147 139.240222 
C 21.375515 136.891245 19.793075 134.4545 18.341327 131.94 
z
" clip-path="url(#p58bfcfc8c9)" style="fill: #2ca02c"/>
   </g>
   <g id="patch_81">
    <path d="M 28.583053 145.984213 
C 30.525148 148.141128 32.578872 150.194852 34.735787 152.136947 
C 36.892702 154.079042 39.149849 155.906843 41.497952 157.61284 
L 41.479778 157.637853 
C 39.130802 155.931222 36.872816 154.102741 34.715099 152.159924 
C 32.557382 150.217107 30.502893 148.162618 28.560076 146.004901 
z
" clip-path="url(#p58bfcfc8c9)" style="fill: #2ca02c"/>
   </g>
   <g id="patch_82">
    <path d="M 41.486062 157.629204 
C 43.834737 159.335616 46.271168 160.917854 48.785345 162.369414 
C 51.299522 163.820975 53.887996 165.139868 56.540129 166.320674 
L 56.535781 166.33044 
C 53.883306 165.149483 51.2945 163.83042 48.78 162.378673 
C 46.2655 160.926925 43.828755 159.344485 41.479778 157.637853 
z
" clip-path="url(#p58bfcfc8c9)" style="fill: #2ca02c"/>
   </g>
   <g id="patch_83">
    <path d="M 56.536651 166.328485 
C 59.189057 167.509413 61.901492 168.550619 64.662808 169.447825 
C 67.424124 170.345031 70.230535 171.097006 73.070509 171.700661 
L 73.070064 171.702754 
C 70.230017 171.099084 67.423534 170.347089 64.662147 169.44986 
C 61.900759 168.552631 59.188255 167.511398 56.535781 166.33044 
z
" clip-path="url(#p58bfcfc8c9)" style="fill: #2ca02c"/>
   </g>
   <g id="patch_84">
    <path d="M 73.070309 171.701599 
C 75.910315 172.305261 78.779988 172.759773 81.667536 173.063266 
C 84.555084 173.36676 87.456547 173.518819 90.36 173.518819 
L 90.36 173.52 
C 87.456505 173.52 84.555002 173.367939 81.667413 173.064441 
C 78.779824 172.760943 75.91011 172.306425 73.070064 171.702754 
z
" clip-path="url(#p58bfcfc8c9)" style="fill: #2ca02c"/>
   </g>
   <g id="patch_85">
    <path d="M 90.36 173.519998 
C 93.263495 173.519998 96.164998 173.367936 99.052587 173.064439 
C 101.940176 172.760941 104.809889 172.306423 107.649936 171.702752 
L 107.649936 171.702754 
C 104.80989 172.306425 101.940176 172.760943 99.052587 173.064441 
C 96.164998 173.367939 93.263495 173.52 90.36 173.52 
z
" clip-path="url(#p58bfcfc8c9)" style="fill: #2ca02c"/>
   </g>
   <g id="patch_86">
    <path d="M 107.648059 171.693925 
C 110.487797 171.09032 113.293976 170.338407 116.055064 169.441275 
C 118.816152 168.544143 121.528361 167.503023 124.180548 166.322194 
L 124.184219 166.33044 
C 121.531745 167.511398 118.819241 168.552631 116.057853 169.44986 
C 113.296466 170.347089 110.489983 171.099084 107.649936 171.702754 
z
" clip-path="url(#p58bfcfc8c9)" style="fill: #2ca02c"/>
   </g>
   <g id="patch_87">
    <path d="M 124.088347 166.115109 
C 126.733304 164.937498 129.314772 163.622174 131.822145 162.174542 
C 134.329518 160.72691 136.759356 159.148954 139.101675 157.44716 
L 139.240222 157.637853 
C 136.891245 159.344485 134.4545 160.926925 131.94 162.378673 
C 129.4255 163.83042 126.836694 165.149483 124.184219 166.33044 
z
" clip-path="url(#p58bfcfc8c9)" style="fill: #2ca02c"/>
   </g>
   <g id="patch_88">
    <path d="M 138.985752 157.287606 
C 141.3225 155.589859 143.568731 153.770897 145.715215 151.838194 
C 147.861699 149.905492 149.905492 147.861699 151.838194 145.715215 
L 152.159924 146.004901 
C 150.217107 148.162618 148.162618 150.217107 146.004901 152.159924 
C 143.847184 154.102741 141.589198 155.931222 139.240222 157.637853 
z
" clip-path="url(#p58bfcfc8c9)" style="fill: #2ca02c"/>
   </g>
   <g id="patch_89">
    <path d="M 148.92659 143.093595 
C 150.76776 141.048768 152.500576 138.908918 154.117918 136.682839 
C 155.735259 134.456759 157.234908 132.147503 158.6107 129.76456 
L 162.378673 131.94 
C 160.926925 134.4545 159.344485 136.891245 157.637853 139.240222 
C 155.931222 141.589198 154.102741 143.847184 152.159924 146.004901 
z
" clip-path="url(#p58bfcfc8c9)" style="fill: #2ca02c"/>
   </g>
   <g id="patch_90">
    <path d="M 159.270505 130.145499 
C 160.659598 127.739519 161.921733 125.26244 163.051723 122.72444 
C 164.181713 120.186441 165.178009 117.591003 166.036516 114.94879 
L 169.44986 116.057853 
C 168.552631 118.819241 167.511398 121.531745 166.33044 124.184219 
C 165.149483 126.836694 163.83042 129.4255 162.378673 131.94 
z
" clip-path="url(#p58bfcfc8c9)" style="fill: #2ca02c"/>
   </g>
   <g id="patch_91">
    <path d="M 169.439158 116.054376 
C 170.336266 113.293362 171.088159 110.487259 171.691748 107.647597 
C 172.295336 104.807935 172.749793 101.938609 173.05325 99.051411 
L 173.064441 99.052587 
C 172.760943 101.940176 172.306425 104.80989 171.702754 107.649936 
C 171.099084 110.489983 170.347089 113.296466 169.44986 116.057853 
z
" clip-path="url(#p58bfcfc8c9)" style="fill: #2ca02c"/>
   </g>
   <g id="legend_1">
    <g id="text_1">
     <!-- Topic: -->
     <g transform="translate(185.75125 118.405938) scale(0.1 -0.1)">
      <defs>
       <path id="DejaVuSans-54" d="M -19 4666 
L 3928 4666 
L 3928 4134 
L 2272 4134 
L 2272 0 
L 1638 0 
L 1638 4134 
L -19 4134 
L -19 4666 
z
" transform="scale(0.015625)"/>
       <path id="DejaVuSans-6f" d="M 1959 3097 
Q 1497 3097 1228 2736 
Q 959 2375 959 1747 
Q 959 1119 1226 758 
Q 1494 397 1959 397 
Q 2419 397 2687 759 
Q 2956 1122 2956 1747 
Q 2956 2369 2687 2733 
Q 2419 3097 1959 3097 
z
M 1959 3584 
Q 2709 3584 3137 3096 
Q 3566 2609 3566 1747 
Q 3566 888 3137 398 
Q 2709 -91 1959 -91 
Q 1206 -91 779 398 
Q 353 888 353 1747 
Q 353 2609 779 3096 
Q 1206 3584 1959 3584 
z
" transform="scale(0.015625)"/>
       <path id="DejaVuSans-70" d="M 1159 525 
L 1159 -1331 
L 581 -1331 
L 581 3500 
L 1159 3500 
L 1159 2969 
Q 1341 3281 1617 3432 
Q 1894 3584 2278 3584 
Q 2916 3584 3314 3078 
Q 3713 2572 3713 1747 
Q 3713 922 3314 415 
Q 2916 -91 2278 -91 
Q 1894 -91 1617 61 
Q 1341 213 1159 525 
z
M 3116 1747 
Q 3116 2381 2855 2742 
Q 2594 3103 2138 3103 
Q 1681 3103 1420 2742 
Q 1159 2381 1159 1747 
Q 1159 1113 1420 752 
Q 1681 391 2138 391 
Q 2594 391 2855 752 
Q 3116 1113 3116 1747 
z
" transform="scale(0.015625)"/>
       <path id="DejaVuSans-69" d="M 603 3500 
L 1178 3500 
L 1178 0 
L 603 0 
L 603 3500 
z
M 603 4863 
L 1178 4863 
L 1178 4134 
L 603 4134 
L 603 4863 
z
" transform="scale(0.015625)"/>
       <path id="DejaVuSans-63" d="M 3122 3366 
L 3122 2828 
Q 2878 2963 2633 3030 
Q 2388 3097 2138 3097 
Q 1578 3097 1268 2742 
Q 959 2388 959 1747 
Q 959 1106 1268 751 
Q 1578 397 2138 397 
Q 2388 397 2633 464 
Q 2878 531 3122 666 
L 3122 134 
Q 2881 22 2623 -34 
Q 2366 -91 2075 -91 
Q 1284 -91 818 406 
Q 353 903 353 1747 
Q 353 2603 823 3093 
Q 1294 3584 2113 3584 
Q 2378 3584 2631 3529 
Q 2884 3475 3122 3366 
z
" transform="scale(0.015625)"/>
       <path id="DejaVuSans-3a" d="M 750 794 
L 1409 794 
L 1409 0 
L 750 0 
L 750 794 
z
M 750 3309 
L 1409 3309 
L 1409 2516 
L 750 2516 
L 750 3309 
z
" transform="scale(0.015625)"/>
      </defs>
      <use xlink:href="#DejaVuSans-54"/>
      <use xlink:href="#DejaVuSans-6f" x="44.083984"/>
      <use xlink:href="#DejaVuSans-70" x="105.265625"/>
      <use xlink:href="#DejaVuSans-69" x="168.742188"/>
      <use xlink:href="#DejaVuSans-63" x="196.525391"/>
      <use xlink:href="#DejaVuSans-3a" x="251.505859"/>
     </g>
    </g>
    <g id="patch_92">
     <path d="M 182.52 133.084063 
L 202.52 133.084063 
L 202.52 126.084063 
L 182.52 126.084063 
z
" style="fill: #1f77b4"/>
    </g>
    <g id="text_2">
     <!-- A -->
     <g transform="translate(210.52 133.084063) scale(0.1 -0.1)">
      <defs>
       <path id="DejaVuSans-41" d="M 2188 4044 
L 1331 1722 
L 3047 1722 
L 2188 4044 
z
M 1831 4666 
L 2547 4666 
L 4325 0 
L 3669 0 
L 3244 1197 
L 1141 1197 
L 716 0 
L 50 0 
L 1831 4666 
z
" transform="scale(0.015625)"/>
      </defs>
      <use xlink:href="#DejaVuSans-41"/>
     </g>
    </g>
    <g id="patch_93">
     <path d="M 182.52 147.762188 
L 202.52 147.762188 
L 202.52 140.762188 
L 182.52 140.762188 
z
" style="fill: #ff7f0e"/>
    </g>
    <g id="text_3">
     <!-- B -->
     <g transform="translate(210.52 147.762188) scale(0.1 -0.1)">
      <defs>
       <path id="DejaVuSans-42" d="M 1259 2228 
L 1259 519 
L 2272 519 
Q 2781 519 3026 730 
Q 3272 941 3272 1375 
Q 3272 1813 3026 2020 
Q 2781 2228 2272 2228 
L 1259 2228 
z
M 1259 4147 
L 1259 2741 
L 2194 2741 
Q 2656 2741 2882 2914 
Q 3109 3088 3109 3444 
Q 3109 3797 2882 3972 
Q 2656 4147 2194 4147 
L 1259 4147 
z
M 628 4666 
L 2241 4666 
Q 2963 4666 3353 4366 
Q 3744 4066 3744 3513 
Q 3744 3084 3544 2831 
Q 3344 2578 2956 2516 
Q 3422 2416 3680 2098 
Q 3938 1781 3938 1306 
Q 3938 681 3513 340 
Q 3088 0 2303 0 
L 628 0 
L 628 4666 
z
" transform="scale(0.015625)"/>
      </defs>
      <use xlink:href="#DejaVuSans-42"/>
     </g>
    </g>
    <g id="patch_94">
     <path d="M 182.52 162.440313 
L 202.52 162.440313 
L 202.52 155.440313 
L 182.52 155.440313 
z
" style="fill: #2ca02c"/>
    </g>
    <g id="text_4">
     <!-- C -->
     <g transform="translate(210.52 162.440313) scale(0.1 -0.1)">
      <defs>
       <path id="DejaVuSans-43" d="M 4122 4306 
L 4122 3641 
Q 3803 3938 3442 4084 
Q 3081 4231 2675 4231 
Q 1875 4231 1450 3742 
Q 1025 3253 1025 2328 
Q 1025 1406 1450 917 
Q 1875 428 2675 428 
Q 3081 428 3442 575 
Q 3803 722 4122 1019 
L 4122 359 
Q 3791 134 3420 21 
Q 3050 -91 2638 -91 
Q 1578 -91 968 557 
Q 359 1206 359 2328 
Q 359 3453 968 4101 
Q 1578 4750 2638 4750 
Q 3056 4750 3426 4639 
Q 3797 4528 4122 4306 
z
" transform="scale(0.015625)"/>
      </defs>
      <use xlink:href="#DejaVuSans-43"/>
     </g>
    </g>
   </g>
  </g>
 </g>
 <defs>
  <clipPath id="p58bfcfc8c9">
   <path d="M 173.52 90.36 
C 173.52 79.439529 171.368905 68.625246 167.189822 58.536046 
C 163.010739 48.446846 156.884939 39.278939 149.163 31.557 
C 141.441061 23.835061 132.273154 17.709261 122.183954 13.530178 
C 112.094754 9.351095 101.280471 7.2 90.36 7.2 
C 79.439529 7.2 68.625246 9.351095 58.536046 13.530178 
C 48.446846 17.709261 39.278939 23.835061 31.557 31.557 
C 23.835061 39.278939 17.709261 48.446846 13.530178 58.536046 
C 9.351095 68.625246 7.2 79.439529 7.2 90.36 
C 7.2 101.280471 9.351095 112.094754 13.530178 122.183954 
C 17.709261 132.273154 23.835061 141.441061 31.557 149.163 
C 39.278939 156.884939 48.446846 163.010739 58.536046 167.189822 
C 68.625246 171.368905 79.439529 173.52 90.36 173.52 
C 101.280471 173.52 112.094754 171.368905 122.183954 167.189822 
C 132.273154 163.010739 141.441061 156.884939 149.163 149.163 
C 156.884939 141.441061 163.010739 132.273154 167.189822 122.183954 
C 171.368905 112.094754 173.52 101.280471 173.52 90.36 
M 118.08 90.36 
C 118.08 94.000157 117.362968 97.604918 115.969941 100.967985 
C 114.576913 104.331051 112.53498 107.38702 109.961 109.961 
C 107.38702 112.53498 104.331051 114.576913 100.967985 115.969941 
C 97.604918 117.362968 94.000157 118.08 90.36 118.08 
C 86.719843 118.08 83.115082 117.362968 79.752015 115.969941 
C 76.388949 114.576913 73.33298 112.53498 70.759 109.961 
C 68.18502 107.38702 66.143087 104.331051 64.750059 100.967985 
C 63.357032 97.604918 62.64 94.000157 62.64 90.36 
C 62.64 86.719843 63.357032 83.115082 64.750059 79.752015 
C 66.143087 76.388949 68.18502 73.33298 70.759 70.759 
C 73.33298 68.18502 76.388949 66.143087 79.752015 64.750059 
C 83.115082 63.357032 86.719843 62.64 90.36 62.64 
C 94.000157 62.64 97.604918 63.357032 100.967985 64.750059 
C 104.331051 66.143087 107.38702 68.18502 109.961 70.759 
C 112.53498 73.33298 114.576913 76.388949 115.969941 79.752015 
C 117.362968 83.115082 118.08 86.719843 118.08 90.36 
z
"/>
  </clipPath>
 </defs>
</svg>
