<svg version="1.1" id="Layer_1" xmlns="http://www.w3.org/2000/svg" xmlns:xlink="http://www.w3.org/1999/xlink" x="0px" y="0px"
	 width="100%" viewBox="0 0 192 192" enable-background="new 0 0 192 192" xml:space="preserve">

<path fill="#8790BA" opacity="1.000000" stroke="none" 
	d="
M116.710999,62.364441 
	C117.294502,61.983330 117.598000,61.790424 118.071655,61.001648 
	C119.691483,59.534580 120.764214,58.212730 122.433846,57.024696 
	C124.365532,56.349255 125.921196,56.387703 127.769852,57.340454 
	C128.439743,57.992619 128.654694,58.466576 128.727020,59.381680 
	C124.902100,65.411003 116.478836,68.625473 110.503677,66.542870 
	C102.678810,63.815571 94.740204,64.467812 86.794121,65.574837 
	C83.026146,66.099777 80.299187,66.711647 78.360962,61.580669 
	C76.577744,56.860031 71.202965,54.373409 66.294685,52.540554 
	C63.804787,51.610767 62.255623,53.600689 61.816513,55.435619 
	C60.286167,61.830570 59.628941,68.334900 61.493942,74.714600 
	C63.666309,72.976578 65.144913,70.138206 68.549141,72.535172 
	C68.869987,77.767303 64.319351,80.524475 63.215588,85.120949 
	C72.048309,82.988213 78.617599,86.202888 83.665680,93.505470 
	C86.631569,97.795959 89.865082,97.612991 93.166763,93.442207 
	C101.156235,83.349686 114.428207,84.178864 120.822762,95.337326 
	C122.331718,97.970451 124.037361,99.387741 127.067459,99.260124 
	C128.557159,99.197388 130.072800,99.301483 131.499985,99.834061 
	C132.849457,100.337654 133.812225,101.179451 133.673462,102.780991 
	C133.556534,104.130821 132.588638,105.224907 131.475388,105.131348 
	C124.539650,104.548431 121.860321,109.455345 118.152351,114.048744 
	C111.463402,122.334923 96.719933,119.485664 91.761833,109.530449 
	C91.166740,108.335594 90.883278,107.007233 90.280746,105.824516 
	C88.620659,102.565926 86.348877,102.406311 84.506516,105.507439 
	C83.314255,107.514267 82.183838,109.548340 80.586304,111.258987 
	C75.239784,116.984131 68.772301,117.800049 59.483170,113.617188 
	C62.636238,119.557327 67.754967,122.158775 72.943314,124.712799 
	C75.876808,126.156830 79.471909,126.386597 81.703888,129.715393 
	C81.886101,130.579422 81.847595,131.077011 81.538803,131.902313 
	C76.429321,134.422058 75.669144,138.652435 75.814735,143.400223 
	C75.952919,147.906860 76.920059,152.283386 77.690300,156.693176 
	C78.089775,158.980301 78.860687,161.303680 78.298615,163.589859 
	C77.393051,167.273117 78.937752,168.466461 82.686951,168.218399 
	C86.816422,166.470428 88.153236,162.884598 86.134705,159.774841 
	C85.426445,158.683701 84.334633,157.882645 83.518936,156.416626 
	C83.356712,155.836014 83.330559,155.591782 83.375290,154.981750 
	C83.675659,154.169647 83.990417,153.797684 84.749313,153.383240 
	C86.406342,152.970734 87.736580,153.298187 89.065468,153.103989 
	C93.672546,152.430786 94.689400,153.318405 94.505806,157.820389 
	C94.424187,159.821747 93.833221,161.746460 93.491264,163.708084 
	C93.258499,165.043304 91.807716,166.797165 93.685165,167.704559 
	C95.597107,168.628616 97.618378,168.063324 99.030075,166.271133 
	C101.022720,163.741409 102.098114,160.767334 102.985687,157.725784 
	C103.925438,154.505447 105.129311,151.431335 107.377892,148.866959 
	C108.367714,147.738129 109.410385,146.663788 110.727745,145.912582 
	C112.103325,145.128159 113.648819,144.646851 114.880592,145.881653 
	C116.239647,147.244019 115.323196,148.691467 114.369347,149.883652 
	C112.706848,151.961548 110.749466,153.901932 110.210648,156.594910 
	C109.758804,158.853180 109.259064,161.328339 112.554230,162.201660 
	C114.428535,162.698441 116.969803,163.020630 116.568024,165.710480 
	C116.105629,168.806168 113.285248,167.723282 111.290329,167.957169 
	C110.900986,168.002823 110.627060,167.986450 110.494522,168.129150 
	C114.285187,168.699249 118.089607,168.357681 121.871506,168.141190 
	C127.571548,167.814926 130.579102,164.717743 131.093475,158.995392 
	C131.705383,152.188339 128.619522,146.772629 124.522247,141.767944 
	C120.661674,137.052368 116.595718,132.670547 109.247841,133.777985 
	C108.268669,133.196732 107.857529,132.596237 107.613655,131.494797 
	C108.495880,128.714447 110.759041,128.390060 112.804626,127.808182 
	C115.360573,127.081139 117.938927,126.439323 120.443344,125.534828 
	C122.284370,124.869911 123.461403,124.066803 121.806641,122.006279 
	C121.103149,121.130280 120.290573,120.031662 121.244987,118.875900 
	C122.204636,117.713814 123.599113,117.807098 124.939507,118.038918 
	C125.925423,118.209419 126.832268,118.655518 127.781929,118.952202 
	C133.249405,120.660240 135.666306,119.047935 135.923660,113.535889 
	C135.954956,112.865784 135.867004,111.947090 136.322647,111.632401 
	C141.048340,108.368607 138.263870,104.701241 136.906143,101.178787 
	C135.231323,96.833679 135.591278,92.869408 138.089050,88.846733 
	C142.648193,81.504211 144.690933,73.408676 144.506973,64.750381 
	C144.356766,57.679371 142.931412,56.662609 135.966873,58.818386 
	C134.545441,59.258369 133.184708,59.951794 131.269043,59.615761 
	C130.219254,59.072353 129.794525,58.451763 129.612381,57.268814 
	C132.706726,52.238396 138.070953,52.864746 142.878113,51.304688 
	C143.531982,51.425171 143.782349,51.523277 144.434509,51.656609 
	C150.136002,53.518906 149.675385,58.464249 149.770126,62.344654 
	C150.003784,71.913559 147.896011,81.137947 143.591599,89.793602 
	C139.968002,97.080185 140.340027,100.359421 145.919037,106.469620 
	C148.250824,109.023415 148.903290,110.741066 145.207336,112.403343 
	C144.467056,112.736298 142.636810,112.925201 143.170151,114.080414 
	C145.455444,119.030228 140.908875,119.644768 138.657455,121.852509 
	C133.988007,126.431419 127.968781,128.350906 121.480507,130.847488 
	C126.742065,136.507080 132.490982,141.445267 135.608643,149.825882 
	C136.703094,143.461731 135.119812,138.306290 137.036743,133.418732 
	C139.964722,125.953308 145.284164,120.051170 153.100143,120.949257 
	C157.431946,121.446999 160.229309,123.697838 161.591400,127.431213 
	C162.991821,131.269623 161.332657,134.429398 157.879303,136.556427 
	C152.792908,139.689301 150.867447,144.326126 150.922852,150.161804 
	C151.014709,159.839523 145.377625,166.307587 136.121521,169.528046 
	C126.986053,172.706543 117.631012,175.962280 108.285454,173.599274 
	C101.261749,171.823334 94.734276,175.691940 87.907860,173.164337 
	C85.263168,172.185089 81.887169,174.286148 78.683968,173.961624 
	C74.277596,173.515213 71.070602,170.852203 72.266968,167.059357 
	C74.322044,160.544128 71.836533,154.674973 70.784431,148.670959 
	C69.813354,143.129288 69.658562,138.021545 72.475868,133.033737 
	C73.322777,131.534332 73.284424,130.776398 71.234718,129.796906 
	C64.939827,126.788773 58.360100,123.938873 55.018085,117.062035 
	C53.992188,114.951073 52.620850,116.685379 51.329170,116.745377 
	C49.589024,116.826195 46.946930,118.226562 46.231472,115.694427 
	C45.530758,113.214439 48.428806,113.478195 49.824039,112.561996 
	C50.904655,111.852409 53.355579,112.718681 52.982048,110.304703 
	C52.624557,107.994339 50.581974,109.090408 49.322994,109.016014 
	C47.053909,108.881935 45.674076,107.973625 46.110893,105.682579 
	C46.679230,102.701775 48.519600,104.715294 49.928719,104.940018 
	C52.510056,105.351685 54.692944,105.204803 54.052673,101.565475 
	C53.460320,98.198494 54.191597,94.632431 55.430065,91.871109 
	C58.278568,85.520035 56.720211,79.726006 55.441139,73.523254 
	C54.455654,68.744247 54.497822,63.689182 56.019508,58.425171 
	C53.927067,55.428123 55.046391,53.169670 56.861336,50.657330 
	C58.173798,48.833164 59.420086,47.426285 61.331821,46.193752 
	C62.536411,45.608109 63.455841,45.381668 64.755478,45.801014 
	C66.728798,46.139412 68.070129,47.006271 69.704353,48.071941 
	C70.206154,48.332546 70.391899,48.445591 70.830887,48.764160 
	C73.174194,50.274563 75.264244,51.579433 77.673645,53.050507 
	C78.161682,53.311634 78.330383,53.406567 78.639168,53.755836 
	C79.010071,54.331684 79.240898,54.653191 79.745407,55.100861 
	C80.200584,55.337341 80.382072,55.447662 80.804321,55.766655 
	C81.045067,55.975319 81.002083,56.002251 81.012573,55.979191 
	C81.165428,56.119564 81.307777,56.282993 81.628395,56.718285 
	C82.026077,57.312279 82.245499,57.634415 82.739685,58.071274 
	C83.195740,58.308460 83.377029,58.430923 83.814880,58.758015 
	C84.071442,58.962639 84.007111,58.990330 84.022011,58.958637 
	C84.173386,59.098293 84.309860,59.269642 84.626831,59.715546 
	C89.626366,60.562229 94.257805,58.137642 99.551895,59.153084 
	C100.168594,59.279900 100.334389,59.348988 100.751648,59.321365 
	C102.748962,59.507263 104.494812,59.789875 106.629715,60.137878 
	C107.205826,60.322075 107.392899,60.440880 107.845909,60.759094 
	C108.833885,60.987347 109.555908,61.016182 110.633469,61.109665 
	C111.440826,61.503735 111.888138,61.841961 112.743011,61.933968 
	C113.777954,62.225826 114.532921,62.515720 115.591988,62.884796 
	C116.074387,62.826870 116.252686,62.689762 116.710999,62.364441 
z"/>
<path fill="#97A8CF" opacity="1.000000" stroke="none" 
	d="
M168.543793,89.155685 
	C176.021362,95.758270 172.363251,104.035690 172.613480,111.529602 
	C172.681854,113.576599 170.226334,114.884407 167.921555,114.927246 
	C163.611053,115.007370 159.268448,115.263870 154.995514,114.856438 
	C151.593689,114.532059 148.508163,112.955849 149.077530,108.643883 
	C149.643127,104.360558 147.499832,99.842270 150.521393,95.690552 
	C151.231659,94.714630 147.714828,93.238739 149.615219,91.135300 
	C151.360321,89.203743 153.014084,87.487808 156.063217,87.977097 
	C160.079926,88.621643 164.282227,87.071548 168.543793,89.155685 
z"/>
<path fill="#91A2CC" opacity="1.000000" stroke="none" 
	d="
M144.659515,51.346035 
	C144.538010,51.752888 144.239700,51.813946 143.489960,51.944275 
	C142.464005,51.655838 141.815659,51.158821 141.844269,50.532681 
	C142.091812,45.115097 138.945847,42.005833 134.559387,39.317238 
	C134.571396,38.668339 134.680923,38.383728 134.879028,38.161816 
	C135.283737,37.708485 135.724503,37.289360 136.165451,36.871193 
	C135.540161,37.197144 135.241562,37.870327 134.350311,38.378838 
	C133.123398,38.411785 132.564468,37.879963 132.050797,37.181072 
	C130.916718,35.638050 131.656296,32.818619 129.253189,32.284248 
	C125.890617,31.536520 122.469269,30.858292 118.973663,31.085897 
	C117.512955,31.181007 116.294678,31.825157 116.198181,33.383572 
	C115.770218,40.294899 115.570297,47.214947 116.316917,54.118359 
	C116.444122,55.294495 117.556511,56.035835 118.309875,57.394661 
	C118.656097,58.295689 118.676201,58.841225 118.358597,59.766426 
	C117.362358,60.593174 116.498535,60.478889 115.259430,60.257629 
	C112.200813,59.589142 111.125923,58.040588 111.007790,55.285690 
	C110.632462,46.533016 112.647667,37.895969 112.067978,29.128056 
	C111.871307,26.153372 114.562134,26.093315 116.615913,26.046694 
	C123.006989,25.901613 129.329788,26.831043 135.545593,28.127365 
	C140.267075,29.112040 146.089890,39.925522 145.101044,44.761208 
	C144.684555,46.797863 144.676468,48.918030 144.659515,51.346035 
z"/>
<path fill="#94A3CB" opacity="1.000000" stroke="none" 
	d="
M65.033066,45.593567 
	C64.312912,46.296841 63.554916,46.620800 62.492340,47.000126 
	C60.915234,46.476490 60.337196,45.073013 60.788898,44.173191 
	C64.126732,37.524075 57.180428,37.472767 54.649673,34.854141 
	C52.851070,32.993088 51.397778,36.226227 49.607605,36.781284 
	C48.266838,37.196999 45.564003,37.035183 45.824913,38.386551 
	C46.448883,41.618362 44.596188,44.919380 45.639156,47.552780 
	C46.434181,49.560154 50.146843,49.829262 52.126926,51.736546 
	C53.145840,52.718010 54.208202,51.274979 55.208477,50.815380 
	C55.996880,50.453125 56.771832,50.300106 57.824974,50.899269 
	C56.679211,53.020966 55.959587,55.072136 56.096428,57.701042 
	C52.363647,59.688095 49.417374,59.761234 47.944035,55.096600 
	C47.449627,53.531292 46.736870,51.731045 44.086197,52.835629 
	C41.936001,53.731651 40.155590,52.312386 39.304287,50.338497 
	C38.575127,48.647804 37.894634,46.751400 40.004505,45.247135 
	C42.239449,43.653690 42.771492,41.956394 40.431114,39.750130 
	C38.675648,38.095257 38.948830,35.996460 40.450779,34.113457 
	C41.794624,32.428665 43.593800,31.146036 45.567173,32.343254 
	C48.306519,34.005177 49.225388,32.250294 49.820499,30.397987 
	C50.869648,27.132513 53.426399,28.225784 55.570641,28.034580 
	C58.147861,27.804766 57.885620,29.619225 58.036697,31.311916 
	C58.250645,33.709026 60.327682,33.748104 62.023041,33.977203 
	C68.544647,34.858505 69.584335,37.429314 65.633461,42.917683 
	C65.197868,43.522785 65.197456,44.441170 65.033066,45.593567 
z"/>
<path fill="#CBD6EA" opacity="1.000000" stroke="none" 
	d="
M42.101685,83.038139 
	C43.723431,84.457535 41.394272,88.442650 46.372711,87.471603 
	C47.952106,87.163544 51.347733,90.488152 51.890594,93.672508 
	C52.149204,95.189499 45.749382,101.160141 44.226318,100.832817 
	C41.559555,100.259682 41.609856,98.712975 42.875988,96.488632 
	C45.030346,92.703842 44.879494,92.617973 42.346359,89.177727 
	C40.655087,93.586029 38.996841,97.893356 37.351948,102.205772 
	C36.921947,103.333099 36.427498,104.400642 34.932468,103.936852 
	C33.733662,103.564941 32.721512,102.712273 33.047611,101.408020 
	C34.482986,95.667046 36.365086,90.060226 38.900360,84.708412 
	C39.345898,83.767906 40.294590,82.788124 42.101685,83.038139 
z"/>
<path fill="#CAD4E8" opacity="1.000000" stroke="none" 
	d="
M42.701054,135.286804 
	C38.626022,134.460876 38.365685,132.829895 41.121929,130.480453 
	C43.071842,128.818344 48.374207,128.849625 50.550110,130.122589 
	C53.786648,132.016022 54.190197,133.599396 50.422295,135.234161 
	C49.997807,135.418320 49.653648,135.853561 49.346664,136.232635 
	C45.504196,140.977325 45.507713,140.980179 42.701054,135.286804 
z"/>
<path fill="#CCD7EA" opacity="1.000000" stroke="none" 
	d="
M24.784605,96.270470 
	C21.242340,93.660583 21.377722,91.420563 24.485281,88.928154 
	C26.415735,87.379845 28.081051,85.490189 29.794714,83.686600 
	C30.744102,82.687393 31.462688,81.935860 33.010365,82.946655 
	C34.813194,84.124084 33.965897,85.541458 33.618702,86.809700 
	C33.432285,87.490623 32.462757,87.939598 31.890854,88.535683 
	C29.753933,90.762970 26.190094,92.714951 30.908972,96.019867 
	C31.709581,96.580597 33.178925,98.681137 31.356554,99.721146 
	C30.151979,100.408585 28.160049,100.660042 27.013735,98.748917 
	C26.515194,97.917740 25.709593,97.270752 24.784605,96.270470 
z"/>
<path fill="#C9CFE9" opacity="1.000000" stroke="none" 
	d="
M161.601562,63.266472 
	C163.382263,65.287086 163.191315,68.316544 166.085556,69.056595 
	C167.228714,69.348892 167.228592,70.713524 166.917191,70.993980 
	C164.680832,73.008133 162.763123,75.212135 161.244995,77.837967 
	C160.955612,78.338486 159.688416,77.428673 159.366348,76.703476 
	C158.441727,74.621368 157.762131,72.586319 154.713791,72.797142 
	C153.692078,72.867805 153.737152,70.562408 154.087646,70.344261 
	C157.086060,68.478027 157.910583,64.511848 161.601562,63.266472 
z"/>
<path fill="#CAD5E8" opacity="1.000000" stroke="none" 
	d="
M82.694832,31.206642 
	C84.940323,32.737492 88.354561,33.828911 83.630005,36.028835 
	C82.252808,36.670109 82.254440,38.209782 81.338242,39.103130 
	C80.307045,40.108624 79.297966,40.555054 78.021538,39.213917 
	C75.162186,36.209625 70.191879,33.522575 77.514717,29.859055 
	C78.538971,29.346638 78.510971,26.781588 80.452652,27.234032 
	C82.199135,27.640993 81.787422,29.677502 82.694832,31.206642 
z"/>
<path fill="#CBD1E8" opacity="1.000000" stroke="none" 
	d="
M29.784281,64.258949 
	C28.107666,61.240570 30.052542,59.853512 31.964270,59.162491 
	C33.373123,58.653240 35.355862,58.303391 36.396702,60.687531 
	C37.154419,62.423157 37.366543,64.008514 36.038792,65.127876 
	C34.048439,66.805832 31.878376,66.517220 29.784281,64.258949 
z"/>
<path fill="#C9CFE9" opacity="1.000000" stroke="none" 
	d="
M30.462807,112.255188 
	C33.609581,111.637009 34.590080,113.359688 34.992916,115.669662 
	C35.243549,117.106865 34.784760,118.403831 33.354923,118.885406 
	C31.466484,119.521439 29.624363,118.819580 28.524471,117.359596 
	C26.933346,115.247589 28.539951,113.754822 30.462807,112.255188 
z"/>
<path fill="#C9D1EA" opacity="1.000000" stroke="none" 
	d="
M98.403458,36.296257 
	C100.606956,35.927242 102.611519,35.758839 102.917702,38.233498 
	C103.095901,39.673779 103.540382,41.243198 101.457741,42.345741 
	C99.890518,43.175419 98.901077,42.698582 98.032692,41.930859 
	C96.116829,40.237087 96.546577,38.319893 98.403458,36.296257 
z"/>
<path fill="#CCD3EB" opacity="1.000000" stroke="none" 
	d="
M155.347305,50.690590 
	C155.146255,47.917866 155.453705,45.589970 158.771942,46.050182 
	C161.309006,46.402054 161.444382,48.613770 160.899429,50.256332 
	C159.810181,53.539436 157.574585,52.073906 155.347305,50.690590 
z"/>
<path fill="#CCD3EB" opacity="1.000000" stroke="none" 
	d="
M60.391983,139.912643 
	C60.489689,141.832535 62.549633,144.174789 59.509766,144.923965 
	C58.203163,145.245956 56.580460,145.413086 55.481434,143.965729 
	C54.634827,142.850784 54.884808,141.813126 55.673969,140.910858 
	C56.836857,139.581284 58.018864,137.988663 60.391983,139.912643 
z"/>
<path fill="#CAD4E8" opacity="1.000000" stroke="none" 
	d="
M40.288548,73.646698 
	C39.132320,69.994003 41.797298,69.468948 43.730328,69.456154 
	C45.787914,69.442528 46.668491,71.527077 45.923664,73.341377 
	C44.669453,76.396469 42.492416,75.076050 40.288548,73.646698 
z"/>
<path fill="#C9D1EA" opacity="1.000000" stroke="none" 
	d="
M90.650307,46.332397 
	C91.283897,50.441845 88.625092,50.227253 86.318771,49.891968 
	C84.033493,49.559750 84.694862,47.145130 85.155006,46.290813 
	C86.496773,43.799622 88.549957,44.701736 90.650307,46.332397 
z"/>
<path fill="#7F87B0" opacity="1.000000" stroke="none" 
	d="
M112.890305,61.656658 
	C112.262596,62.848583 111.612732,62.847462 111.045052,61.438885 
	C111.578537,61.241997 112.168083,61.309689 112.890305,61.656658 
z"/>
<path fill="#7F87B0" opacity="1.000000" stroke="none" 
	d="
M115.034698,60.374077 
	C115.655571,60.041977 116.437553,60.018906 117.610626,59.992371 
	C118.001701,59.988907 118.356544,60.340805 118.319061,60.587849 
	C118.281586,60.834892 118.113647,60.955967 118.021141,61.002434 
	C117.017700,60.926971 116.106758,60.805038 115.034698,60.374077 
z"/>
<path fill="#7F87B0" opacity="1.000000" stroke="none" 
	d="
M108.017426,60.716381 
	C107.806114,60.898769 107.539719,60.762253 107.165726,60.376114 
	C107.320175,60.293602 107.621590,60.383926 108.017426,60.716381 
z"/>
<path fill="#7F87B0" opacity="1.000000" stroke="none" 
	d="
M70.993362,48.732746 
	C70.784523,48.909607 70.524254,48.774006 70.161865,48.391190 
	C70.314468,48.311600 70.608536,48.403702 70.993362,48.732746 
z"/>
<path fill="#7F87B0" opacity="1.000000" stroke="none" 
	d="
M83.993080,58.715694 
	C83.771324,58.895142 83.512573,58.752586 83.154816,58.360489 
	C83.314537,58.280251 83.614632,58.374500 83.993080,58.715694 
z"/>
<path fill="#7A80A1" opacity="1.000000" stroke="none" 
	d="
M78.805214,53.764881 
	C78.532478,53.917999 78.330452,53.766251 78.083076,53.385815 
	C78.368263,53.052338 78.647667,53.153301 78.805214,53.764881 
z"/>
<path fill="#7F87B0" opacity="1.000000" stroke="none" 
	d="
M84.837425,59.734169 
	C84.548431,59.827515 84.342957,59.613598 84.113922,59.137650 
	C84.313782,59.110706 84.590645,59.294464 84.837425,59.734169 
z"/>
<path fill="#7A80A1" opacity="1.000000" stroke="none" 
	d="
M100.754013,59.150177 
	C101.003113,59.224651 100.647491,59.514851 100.647491,59.514851 
	C100.647491,59.514851 100.205284,59.453930 100.104050,59.332375 
	C100.170174,59.165779 100.337547,59.120743 100.754013,59.150177 
z"/>
<path fill="#7F87B0" opacity="1.000000" stroke="none" 
	d="
M116.729065,62.146400 
	C116.819786,62.438332 116.598640,62.647675 116.111832,62.884125 
	C116.086433,62.681507 116.276779,62.399033 116.729065,62.146400 
z"/>
<path fill="#7F87B0" opacity="1.000000" stroke="none" 
	d="
M81.837967,56.733387 
	C81.550179,56.832199 81.343933,56.624390 81.105507,56.161423 
	C81.305138,56.129631 81.587204,56.303131 81.837967,56.733387 
z"/>
<path fill="#7F87B0" opacity="1.000000" stroke="none" 
	d="
M80.964554,55.739632 
	C80.752922,55.913654 80.500687,55.777866 80.153717,55.397484 
	C80.390648,55.059319 80.678963,55.151627 80.964554,55.739632 
z"/>
<path fill="#FBF4E4" opacity="1.000000" stroke="none" 
	d="
M130.658356,58.725071 
	C133.793106,57.981567 136.538544,56.773354 139.410507,56.208672 
	C144.974915,55.114586 145.830627,55.976105 146.142197,61.545143 
	C146.685989,71.265205 144.931717,80.679832 139.898849,88.863136 
	C135.927536,95.320412 137.683197,100.654358 140.945068,105.948601 
	C142.751694,108.880882 142.991089,110.087608 139.399658,110.874634 
	C137.187042,111.359520 135.888107,112.724182 137.956085,114.662956 
	C140.246002,116.809814 138.603546,117.781052 137.097702,118.860222 
	C133.645187,121.334473 130.209137,123.701492 125.967270,120.097412 
	C124.930664,119.216675 123.443520,118.392746 121.726593,119.277519 
	C122.293808,122.017563 125.427711,121.793625 126.959755,124.035492 
	C121.667686,128.363953 114.833603,128.519730 108.470718,130.877777 
	C107.923470,131.306732 107.730087,131.711258 107.465614,131.763504 
	C98.882278,133.459457 90.312653,134.634048 81.660690,130.334900 
	C74.650665,127.140083 67.621040,125.057037 61.920376,120.114418 
	C58.669445,117.295792 57.332008,113.947800 56.612736,108.892456 
	C61.265812,112.923843 65.525047,115.540016 70.830170,114.746521 
	C76.783669,113.856049 80.923073,110.392296 82.697098,104.639694 
	C83.466194,102.145760 84.513786,100.757797 87.161926,101.147873 
	C89.660065,101.515839 91.692665,101.958427 92.324486,105.344505 
	C93.665810,112.533058 98.729813,116.787628 105.229881,117.112144 
	C113.282555,117.514175 117.817017,114.688011 120.393379,107.026810 
	C121.263039,104.440742 122.489365,103.580109 125.002274,103.856651 
	C126.320328,104.001717 127.670792,103.966949 128.998123,103.881409 
	C130.384415,103.792061 132.651016,104.439484 132.617111,102.423523 
	C132.584274,100.470741 130.277206,100.940323 128.923538,101.037239 
	C124.182785,101.376656 120.670189,100.977394 118.744720,95.225212 
	C117.058182,90.186813 111.830002,88.159348 106.504539,88.108192 
	C100.924889,88.054588 96.652870,90.614845 93.765587,95.511520 
	C92.957649,96.881737 93.047279,99.893257 90.394386,98.855125 
	C87.635925,97.775688 84.012978,99.625343 82.107468,95.118935 
	C78.396965,86.343857 70.356735,84.086708 59.950119,88.578262 
	C61.667690,82.409576 64.692497,77.703720 68.658325,73.065941 
	C68.570969,71.825378 68.741386,70.913811 69.445740,69.755989 
	C72.331787,68.342537 72.982254,66.715485 71.435150,64.039330 
	C69.988029,61.536144 68.205452,59.431072 65.651596,57.523552 
	C65.167671,57.246376 64.978218,57.128471 64.539444,56.792755 
	C63.901646,55.987026 63.849762,56.245682 63.801125,57.080681 
	C62.329182,63.408092 63.515354,69.571251 62.324615,75.941994 
	C61.800961,77.194862 61.379665,78.078972 60.365299,80.207649 
	C58.340714,70.024460 58.130192,61.168404 61.197472,52.412861 
	C62.204796,49.537468 64.548080,49.469189 66.956017,50.574516 
	C71.989159,52.884911 76.248627,56.322464 80.309479,60.019939 
	C80.791542,60.458866 81.383301,60.997013 81.503906,61.576626 
	C82.157677,64.718498 82.101143,64.674545 85.457321,63.983288 
	C94.900932,62.038204 104.281586,61.611217 113.236946,65.974304 
	C114.716789,66.695282 115.633034,66.415817 116.852142,65.782684 
	C120.361130,63.960300 123.911186,62.217007 127.722443,60.231094 
	C128.554977,59.181072 129.072937,58.283619 130.658356,58.725071 
z"/>
<path fill="#FCF4E4" opacity="1.000000" stroke="none" 
	d="
M83.716812,154.922821 
	C83.803642,155.251495 83.882690,155.641525 83.934570,155.833618 
	C86.605461,160.289474 86.798553,164.669357 84.288193,169.530670 
	C81.978592,169.976746 79.977585,170.258682 78.018852,170.079254 
	C75.845436,169.880127 74.306641,168.311447 75.609421,166.328201 
	C78.033989,162.637238 76.164940,159.224045 75.577591,155.760269 
	C74.437904,149.039230 72.962257,142.386688 74.872437,135.547928 
	C75.653755,132.750656 76.935211,131.052292 80.537064,131.863007 
	C89.900803,136.363586 99.056564,135.572144 108.665039,132.915863 
	C118.506195,129.148697 122.403625,136.641785 127.032501,142.095612 
	C132.362457,148.375473 134.834793,155.623154 131.921555,163.850418 
	C130.563629,167.685272 127.444023,169.723709 123.573402,169.999435 
	C118.441612,170.365005 113.272194,170.222595 108.118713,170.244827 
	C107.180717,170.248871 105.939842,170.443909 105.582901,169.235397 
	C105.154808,167.785995 106.404160,167.228363 107.389709,166.648209 
	C110.012596,165.104156 112.911491,166.704758 115.846687,166.057098 
	C115.372429,163.626678 113.439812,163.872330 112.011185,163.893356 
	C108.239029,163.948807 107.706604,161.750473 107.826736,158.699020 
	C108.034653,153.417526 111.832497,150.279190 116.001282,145.819366 
	C110.573074,146.357635 108.503021,149.313751 107.032639,152.403305 
	C104.972740,156.731537 103.531097,161.350769 101.736046,165.809723 
	C100.902412,167.880478 99.581451,169.615921 97.199379,170.038803 
	C95.073059,170.416290 92.669662,171.005447 90.929375,169.557693 
	C88.792717,167.780228 91.217255,166.024155 91.576241,164.225815 
	C92.283279,160.683823 93.538757,157.175293 92.660553,152.664871 
	C90.662445,156.106537 88.422424,156.947052 85.477966,154.044128 
	C84.353462,153.485458 83.930466,153.908493 83.716812,154.922821 
z"/>
<path fill="#E4E5F6" opacity="1.000000" stroke="none" 
	d="
M134.582352,37.997150 
	C134.804718,39.588436 135.877304,40.070168 137.100540,40.032421 
	C142.657974,39.860939 143.542374,43.124001 142.917511,47.655144 
	C142.761810,48.784225 142.891815,49.952709 142.964508,51.558319 
	C139.502274,55.148628 134.387787,54.055935 130.322083,56.815659 
	C129.636383,57.495228 129.168137,57.811211 128.239716,57.758015 
	C126.260536,57.860828 124.569695,58.029156 122.454529,58.231407 
	C120.971107,58.944546 119.875000,59.154205 118.358589,58.266724 
	C114.993767,57.622871 113.834198,55.997883 113.943962,52.905415 
	C114.168335,46.583969 114.249207,40.246914 114.069069,33.925404 
	C113.952812,29.845575 115.722473,28.581186 119.501305,29.027472 
	C125.797783,29.771095 133.644150,27.874256 134.582352,37.997150 
z"/>
<path fill="#FAF3E4" opacity="1.000000" stroke="none" 
	d="
M97.030060,109.760483 
	C93.623604,102.974937 94.524811,96.979172 99.231361,93.283272 
	C103.571236,89.875298 110.176773,90.167183 114.347099,93.951187 
	C118.500580,97.719894 119.225189,104.374084 116.426445,109.485802 
	C113.387192,115.036804 102.828522,117.189156 97.030060,109.760483 
z"/>
<path fill="#F9F2E4" opacity="1.000000" stroke="none" 
	d="
M80.291351,100.120697 
	C79.703522,108.043579 75.820580,112.091484 69.274178,112.043068 
	C62.768757,111.994949 57.318012,106.888855 57.068031,100.608711 
	C56.841129,94.908348 61.509991,89.630333 67.309402,89.031158 
	C74.295822,88.309341 79.149185,92.296654 80.291351,100.120697 
z"/>
<path fill="#FBF3E3" opacity="1.000000" stroke="none" 
	d="
M136.122009,161.355362 
	C139.631073,155.141953 140.384781,148.724655 139.846512,141.924805 
	C139.428818,136.648041 140.496582,131.673004 144.437881,127.672440 
	C146.396271,125.684593 148.723969,124.363274 151.427139,124.224709 
	C154.143616,124.085449 156.899063,124.779640 157.972229,127.705338 
	C158.986938,130.471756 157.611389,132.593414 155.188507,133.929474 
	C149.924469,136.832260 148.337372,141.527145 147.884293,147.192444 
	C147.469833,152.374893 147.516678,157.969376 142.201233,161.723785 
	C140.044922,163.303055 138.171860,163.213760 136.122009,161.355362 
z"/>
<path fill="#D3DCF1" opacity="1.000000" stroke="none" 
	d="
M58.316795,50.972698 
	C55.861240,51.133411 54.831562,52.520222 54.047745,54.320366 
	C53.180206,56.312794 51.686565,56.675438 51.122749,54.430473 
	C50.241241,50.920567 48.005150,50.026997 44.896603,49.998116 
	C41.909840,49.970364 41.220718,48.751427 43.079689,46.339687 
	C45.172672,43.624348 45.554214,41.098076 42.970501,38.328758 
	C41.500282,36.752926 42.572830,35.095707 44.382263,35.457214 
	C48.137539,36.207489 50.740845,35.708046 52.542583,31.888706 
	C53.306107,30.270182 55.174580,30.578949 55.890232,32.524494 
	C57.002045,35.547035 58.791317,37.017399 62.254574,36.532425 
	C64.833344,36.171314 65.758568,37.852028 64.065849,39.802631 
	C62.352421,41.777084 61.955029,43.858070 62.126835,46.650230 
	C60.986027,48.297428 59.784290,49.539360 58.316795,50.972698 
z"/>
<path fill="#F2E0E1" opacity="1.000000" stroke="none" 
	d="
M108.949814,132.649582 
	C102.703011,138.663635 86.200890,138.500031 81.016457,132.236755 
	C81.038399,131.437027 81.122482,131.010468 81.285583,130.266220 
	C89.911316,131.759949 98.576599,130.736862 107.666992,131.045853 
	C108.382919,131.512619 108.618713,131.962296 108.949814,132.649582 
z"/>
<path fill="#EAD7DB" opacity="1.000000" stroke="none" 
	d="
M62.485458,76.093849 
	C60.610146,69.511490 59.613682,62.742748 63.576668,56.101196 
	C64.118416,55.876797 64.302834,55.753407 64.765106,55.813278 
	C65.042953,55.996540 64.992882,56.008091 64.995346,55.982513 
	C67.175888,58.200886 69.472252,60.336605 71.027992,63.115089 
	C72.375000,65.520775 72.657738,67.768929 70.208015,70.156036 
	C69.763451,71.178001 69.480263,71.834686 69.065582,72.643051 
	C65.230347,70.527039 64.720375,74.668716 62.485458,76.093849 
z"/>
<path fill="#E7D7DC" opacity="1.000000" stroke="none" 
	d="
M84.331680,169.912445 
	C83.969795,165.582214 83.978630,161.266159 83.986954,156.487915 
	C90.465775,160.424515 90.732391,165.601028 84.331680,169.912445 
z"/>
<path fill="#E6D9DD" opacity="1.000000" stroke="none" 
	d="
M135.654266,161.286423 
	C137.654755,161.320374 139.433411,161.647003 141.599380,161.983276 
	C141.614609,163.413132 140.462021,164.109146 139.301224,164.711288 
	C138.160385,165.303070 136.835876,166.460312 135.658997,165.650070 
	C134.188828,164.637894 135.043152,162.980469 135.654266,161.286423 
z"/>
<path fill="#8F9AC4" opacity="1.000000" stroke="none" 
	d="
M118.002983,58.337048 
	C119.082199,58.035645 120.160126,58.064671 121.634125,58.179512 
	C121.722778,60.003941 120.737846,60.944725 118.601242,60.870316 
	C118.281586,60.834892 118.101479,60.425316 118.051590,60.207111 
	C118.001701,59.548431 118.001701,59.107952 118.002983,58.337048 
z"/>
<path fill="#98A0C4" opacity="1.000000" stroke="none" 
	d="
M83.985420,154.981598 
	C83.018997,154.510651 81.741982,153.672714 82.556343,152.586349 
	C83.352829,151.523819 84.138451,152.811295 84.996803,153.610214 
	C84.827995,154.158005 84.497597,154.434845 83.985420,154.981598 
z"/>
<path fill="#8F9AC4" opacity="1.000000" stroke="none" 
	d="
M127.965179,58.080872 
	C128.444702,57.448509 128.938019,57.204517 129.714844,56.975986 
	C130.248337,57.467468 130.498337,57.943485 130.869415,58.659256 
	C130.205338,59.239166 129.420166,59.579319 128.317383,59.969509 
	C127.992851,59.502781 127.985909,58.986015 127.965179,58.080872 
z"/>
<path fill="#DEE9F6" opacity="1.000000" stroke="none" 
	d="
M159.985565,90.940598 
	C167.809311,91.024307 170.121277,93.310883 170.053726,100.775833 
	C169.945984,112.680298 171.651794,111.040894 159.876541,111.066216 
	C157.395477,111.071556 153.652969,112.508820 152.698303,109.536530 
	C151.507904,105.830307 150.672943,101.481102 153.511642,97.797028 
	C154.136673,96.985878 155.035843,96.171295 154.734634,95.230476 
	C153.071335,90.034897 156.729248,90.994812 159.985565,90.940598 
z"/>
<path fill="#DBDEF2" opacity="1.000000" stroke="none" 
	d="
M135.005707,38.007980 
	C135.004929,36.292469 135.004929,34.562565 135.004929,32.226460 
	C137.505264,33.614395 139.509506,35.029808 139.442734,37.047714 
	C139.383179,38.847717 137.100174,37.867771 135.372803,37.991627 
	C134.977676,37.994297 135.006500,37.993595 135.005707,38.007980 
z"/>
<path fill="#EAD7DB" opacity="1.000000" stroke="none" 
	d="
M141.828918,61.814827 
	C144.863373,71.082390 141.787003,83.191162 135.217407,87.881065 
	C133.540131,84.638931 130.717255,81.694832 133.142838,77.709465 
	C133.676056,76.833351 132.715820,75.876740 131.632614,75.551712 
	C127.003380,74.162674 128.477051,71.449059 130.651657,69.325829 
	C133.831192,66.221428 137.101120,63.072327 141.828918,61.814827 
z"/>
<path fill="#8D97C0" opacity="1.000000" stroke="none" 
	d="
M141.961578,61.681007 
	C137.433975,65.028008 132.766037,68.106659 129.141373,73.647568 
	C134.524673,73.865883 136.459564,75.716698 133.466537,80.677727 
	C132.386993,82.467102 135.639832,84.645309 134.935944,87.517029 
	C132.264526,85.151535 128.333572,83.118080 131.081604,78.043579 
	C131.919998,76.495422 129.369858,76.583725 128.308334,76.351646 
	C126.292458,75.910912 125.301392,75.147392 126.067139,72.949562 
	C127.553871,68.682373 137.119156,61.589626 141.961578,61.681007 
z"/>
<path fill="#8D97C0" opacity="1.000000" stroke="none" 
	d="
M88.515625,118.523354 
	C86.728569,117.414589 85.344017,116.912041 83.528412,117.705788 
	C81.900429,118.417526 80.242294,118.068352 79.040619,115.821793 
	C82.101715,115.069023 85.627411,114.579300 83.201866,109.854088 
	C82.507515,108.501419 84.749229,108.092567 86.086266,108.202950 
	C87.413857,108.312546 89.639259,109.106949 88.879623,110.184151 
	C84.472771,116.433266 90.239746,115.619591 93.622688,116.559120 
	C92.384262,118.910904 90.767151,119.131798 88.515625,118.523354 
z"/>
<path fill="#8F98C1" opacity="1.000000" stroke="none" 
	d="
M70.439034,70.513206 
	C72.385635,64.456482 67.462944,61.009762 65.023209,56.307808 
	C70.070404,57.517345 72.117249,61.773804 73.782738,66.184364 
	C74.696236,68.603462 72.617691,69.599869 70.439034,70.513206 
z"/>
<path fill="#98A0C4" opacity="1.000000" stroke="none" 
	d="
M134.334900,114.477348 
	C134.535950,118.173843 132.264618,116.507484 130.944046,116.131462 
	C128.570847,115.455711 123.933197,115.632416 124.453651,113.489388 
	C125.167290,110.550873 128.868927,113.612068 131.302231,113.310989 
	C132.174728,113.203026 133.145096,113.885994 134.334900,114.477348 
z"/>
<path fill="#8F98C1" opacity="1.000000" stroke="none" 
	d="
M64.998955,55.775467 
	C64.858238,56.005451 64.673515,56.014366 64.211395,56.011738 
	C64.156128,55.580917 64.391640,55.192295 64.998955,55.775467 
z"/>
<path fill="#9DACD3" opacity="1.000000" stroke="none" 
	d="
M126.471352,43.829346 
	C129.396820,43.961285 131.882385,44.031685 134.366806,44.130867 
	C135.380280,44.171329 136.617981,44.305302 136.708649,45.475971 
	C136.808975,46.771126 135.534698,47.047352 134.564255,46.859863 
	C129.581100,45.897102 124.324631,46.606293 119.019363,44.447289 
	C121.502762,42.093307 123.818207,43.462521 126.471352,43.829346 
z"/>
<path fill="#9DACD3" opacity="1.000000" stroke="none" 
	d="
M122.419998,38.908302 
	C120.929970,38.663830 119.473251,38.695641 119.543518,37.167110 
	C119.604240,35.846050 120.936638,36.049061 121.852501,36.062351 
	C124.118774,36.095234 126.401855,36.154846 128.581528,37.816605 
	C126.896973,39.966583 124.674278,38.623516 122.419998,38.908302 
z"/>
<path fill="#97A8CF" opacity="1.000000" stroke="none" 
	d="
M120.598366,49.087059 
	C123.592819,49.089558 126.223251,49.019489 128.859482,50.927776 
	C125.676147,52.770885 122.797264,52.073273 120.007309,50.889816 
	C119.067024,50.490963 119.191498,49.622307 120.598366,49.087059 
z"/>
<path fill="#8D97C0" opacity="1.000000" stroke="none" 
	d="
M105.340134,108.026802 
	C103.910751,107.490662 102.745308,107.158180 101.888474,106.451500 
	C100.790710,105.546104 99.137909,104.280678 100.386330,102.791527 
	C101.735451,101.182259 102.543747,103.358017 103.479141,103.979179 
	C105.694664,105.450401 107.785149,105.396889 109.932220,103.906471 
	C110.851128,103.268608 112.003593,102.211433 112.803009,103.765526 
	C113.422218,104.969284 112.309776,105.902573 111.386902,106.634102 
	C109.726456,107.950272 107.775154,108.186539 105.340134,108.026802 
z"/>
<path fill="#8F98C1" opacity="1.000000" stroke="none" 
	d="
M72.479797,105.585785 
	C69.161011,106.004356 66.578217,105.277367 64.697639,102.851517 
	C64.080429,102.055351 63.673641,101.024384 64.644951,100.235931 
	C65.394997,99.627090 66.197289,100.113403 66.824860,100.677315 
	C68.310104,102.011894 69.714783,103.376366 72.017166,102.332100 
	C73.214027,101.789261 74.840477,99.861267 75.767006,101.771164 
	C76.828346,103.958969 74.421356,104.659576 72.479797,105.585785 
z"/>
<path fill="#95A4CD" opacity="1.000000" stroke="none" 
	d="
M49.985905,39.767426 
	C53.214745,38.384785 55.813927,38.505817 57.706459,41.399464 
	C58.822399,43.105717 58.945110,44.900707 57.628765,46.468235 
	C55.756660,48.697563 53.363419,49.888489 50.677738,47.984802 
	C47.606167,45.807583 46.898849,43.062290 49.985905,39.767426 
z"/>
<path fill="#8C9FCB" opacity="1.000000" stroke="none" 
	d="
M164.360657,99.901146 
	C161.536621,99.826912 159.052185,100.508476 156.134293,99.198883 
	C159.329712,97.208839 162.288315,97.810867 165.141937,98.476143 
	C165.948532,98.664169 165.361694,99.480820 164.360657,99.901146 
z"/>
<path fill="#91A2CC" opacity="1.000000" stroke="none" 
	d="
M159.212402,106.040054 
	C158.034409,105.968231 157.046478,106.128174 156.720718,105.251976 
	C156.436066,104.486313 157.170792,104.074677 157.834320,104.075714 
	C159.676422,104.078598 161.639847,103.334846 163.493896,104.852455 
	C162.493042,106.548851 160.898514,105.833511 159.212402,106.040054 
z"/>
</svg>