<?xml version="1.0" standalone="no"?>
<!DOCTYPE svg PUBLIC "-//W3C//DTD SVG 20010904//EN"
 "http://www.w3.org/TR/2001/REC-SVG-20010904/DTD/svg10.dtd">
<svg version="1.0" xmlns="http://www.w3.org/2000/svg"
 width="100.000000pt" height="100.000000pt" viewBox="0 0 100.000000 100.000000"
 preserveAspectRatio="xMidYMid meet">
<metadata>
Created by potrace 1.11, written by Peter Selinger 2001-2013
</metadata>
<g transform="translate(0.000000,100.000000) scale(0.100000,-0.100000)"
fill="#000000" stroke="none">
<path d="M110 954 c0 -39 41 -131 67 -151 9 -7 14 -16 10 -19 -7 -8 -89 103
-106 145 -16 37 -34 31 -25 -7 10 -41 33 -82 61 -108 14 -13 22 -24 16 -24
-10 0 -58 34 -93 68 -13 12 -27 22 -32 22 -17 0 -7 -18 27 -51 34 -33 50 -64
20 -39 -9 7 -18 10 -21 7 -5 -5 14 -46 27 -57 3 -3 9 -14 13 -25 6 -16 5 -18
-5 -7 -21 20 -34 14 -14 -8 15 -16 15 -22 5 -35 -10 -12 -10 -18 0 -30 6 -8 9
-18 6 -23 -3 -6 1 -15 9 -22 8 -7 15 -21 15 -31 0 -11 5 -19 10 -19 6 0 10 -9
10 -21 0 -23 75 -138 96 -146 8 -3 14 -11 14 -18 0 -7 14 -16 30 -20 17 -4 30
-11 30 -16 0 -5 11 -15 25 -21 35 -16 12 -28 -40 -22 -22 2 -56 6 -74 8 -48 5
-59 -1 -77 -43 -9 -20 -19 -43 -23 -51 -18 -35 8 -143 37 -156 9 -4 21 -6 25
-5 4 1 18 -5 30 -14 12 -8 34 -15 50 -15 23 0 28 4 23 16 -5 13 -4 14 7 5 11
-8 24 -5 58 14 24 14 52 28 61 31 9 3 22 21 28 40 9 27 8 38 -7 61 -17 28 -17
28 3 10 11 -9 24 -14 27 -10 4 3 15 -1 24 -9 40 -33 104 -57 174 -63 77 -8
137 -8 150 1 4 2 10 0 14 -6 4 -7 12 -7 26 0 13 7 25 7 38 0 30 -16 36 -12 16
10 -16 18 -16 20 -1 26 9 3 22 4 30 1 8 -3 33 10 55 30 44 38 54 61 19 42 -61
-33 -97 -26 -162 28 -16 14 -62 40 -103 58 -40 19 -73 38 -73 42 0 4 20 26 44
49 43 40 44 42 23 52 -41 19 -55 20 -82 6 -15 -8 -44 -14 -65 -14 -47 0 -77
28 -136 130 -51 86 -72 113 -97 123 -21 8 -34 40 -43 107 -4 28 -10 53 -14 55
-15 9 -18 -21 -5 -58 18 -53 1 -46 -23 11 -26 60 -42 120 -42 155 0 15 -4 27
-10 27 -19 0 -15 -76 6 -127 9 -19 13 -37 10 -40 -8 -8 -64 110 -71 150 -9 47
-25 48 -25 1z"/>
</g>
</svg>
